G04*
G04 #@! TF.GenerationSoftware,Altium Limited,Altium Designer,23.5.1 (21)*
G04*
G04 Layer_Physical_Order=2*
G04 Layer_Color=16711680*
%FSLAX25Y25*%
%MOIN*%
G70*
G04*
G04 #@! TF.SameCoordinates,AFD14176-74B1-4AA8-BEBF-F55300C3C1FD*
G04*
G04*
G04 #@! TF.FilePolarity,Positive*
G04*
G01*
G75*
%ADD15R,0.03100X0.03800*%
%ADD17R,0.02756X0.05118*%
%ADD18R,0.03800X0.03100*%
%ADD21R,0.05118X0.02756*%
%ADD38R,0.05900X0.05900*%
%ADD41C,0.01000*%
%ADD42C,0.11811*%
%ADD43O,0.04724X0.06693*%
%ADD44C,0.07874*%
%ADD45C,0.05900*%
%ADD46C,0.04921*%
%ADD47C,0.02362*%
%ADD48C,0.01968*%
%ADD49R,0.07874X0.04331*%
%ADD50R,0.01968X0.05906*%
%ADD51R,0.23300X0.21700*%
%ADD52R,0.09800X0.03700*%
%ADD53R,0.07600X0.02100*%
%ADD54R,0.06299X0.12992*%
%ADD55R,0.06299X0.04724*%
%ADD56R,0.06299X0.03543*%
%ADD57R,0.06102X0.04724*%
%ADD58R,0.06299X0.06299*%
%ADD59C,0.07874*%
%ADD60C,0.05906*%
%ADD61C,0.06000*%
G36*
X771850Y625001D02*
Y616881D01*
X775067D01*
X775188Y616760D01*
X776303Y616015D01*
X777542Y615502D01*
X778857Y615240D01*
X780198D01*
X781513Y615502D01*
X782232Y615800D01*
X786282Y611750D01*
Y563386D01*
X781778D01*
Y564018D01*
X779126D01*
Y564653D01*
X779382D01*
Y565358D01*
X779384Y565366D01*
X779382Y565375D01*
Y571693D01*
X779382Y571961D01*
X779785Y572193D01*
X780608D01*
X781012Y571961D01*
Y571256D01*
X781010Y571248D01*
X781012Y571239D01*
Y564653D01*
X784382D01*
Y571239D01*
X784384Y571248D01*
X784382Y571256D01*
Y571961D01*
X784126D01*
Y572815D01*
X784126Y572815D01*
X784017Y573362D01*
X783707Y573825D01*
X782900Y574633D01*
X782436Y574943D01*
X781889Y575051D01*
X764456D01*
Y576223D01*
X759954D01*
Y571022D01*
X764456D01*
Y572193D01*
X765608D01*
X766012Y571961D01*
X766012Y571693D01*
Y568751D01*
X764456D01*
Y569923D01*
X759954D01*
Y568751D01*
X757679D01*
X753791Y572639D01*
Y579134D01*
X753682Y579681D01*
X753373Y580144D01*
X750617Y582900D01*
X750153Y583210D01*
X749606Y583319D01*
X700198D01*
X690799Y592718D01*
Y601648D01*
X694095D01*
X694368Y601702D01*
X694600Y601857D01*
X694755Y602089D01*
X694809Y602362D01*
Y606299D01*
X694755Y606573D01*
X694600Y606804D01*
X692238Y609167D01*
X692006Y609322D01*
X691732Y609376D01*
X672063D01*
X671872Y609838D01*
X679036Y617002D01*
X682324D01*
Y614135D01*
X691325D01*
Y617002D01*
X693307D01*
X693580Y617056D01*
X693812Y617211D01*
X693967Y617443D01*
X694022Y617717D01*
Y623622D01*
X693967Y623896D01*
X693812Y624127D01*
X693580Y624282D01*
X693307Y624337D01*
X605084D01*
X605056Y624331D01*
X605027Y624334D01*
X604920Y624304D01*
X604810Y624282D01*
X604786Y624266D01*
X604759Y624258D01*
X596797Y620189D01*
X596370Y620450D01*
Y623340D01*
X596407Y623622D01*
X596370Y623905D01*
Y627472D01*
X592802D01*
X592520Y627510D01*
X592237Y627472D01*
X588669D01*
Y625270D01*
X587780Y624380D01*
X584252D01*
X583246Y624247D01*
X582308Y623859D01*
X581912Y623555D01*
X580500D01*
Y621506D01*
X580497Y621498D01*
X580364Y620492D01*
X580497Y619486D01*
X580500Y619478D01*
Y617429D01*
X581912D01*
X582308Y617125D01*
X583246Y616737D01*
X584252Y616605D01*
X588685D01*
X588806Y616105D01*
X585502Y614416D01*
X585414Y614347D01*
X585322Y614285D01*
X584534Y613497D01*
X584379Y613266D01*
X584325Y612992D01*
Y607480D01*
X584379Y607207D01*
X584534Y606975D01*
X588077Y603432D01*
X588309Y603277D01*
X588583Y603223D01*
X664246D01*
Y602362D01*
X664300Y602089D01*
X664455Y601857D01*
X664687Y601702D01*
X664961Y601648D01*
X687666D01*
X687841Y601402D01*
X687941Y601192D01*
Y592126D01*
X688050Y591579D01*
X688360Y591116D01*
X698596Y580879D01*
X699059Y580570D01*
X699606Y580461D01*
X749014D01*
X750933Y578542D01*
Y572047D01*
X751042Y571500D01*
X751352Y571037D01*
X756076Y566312D01*
X756076Y566312D01*
X756540Y566002D01*
X757087Y565893D01*
X757087Y565893D01*
X759954D01*
Y564722D01*
X764456D01*
Y565893D01*
X766012D01*
Y564653D01*
X769382D01*
Y571693D01*
X769382Y571961D01*
X769785Y572193D01*
X770608D01*
X771012Y571961D01*
X771012Y571693D01*
Y565375D01*
X771010Y565366D01*
X771012Y565358D01*
Y564653D01*
X771268D01*
Y564018D01*
X770978D01*
Y563386D01*
X740945D01*
X733465Y555905D01*
Y527953D01*
X742878Y518539D01*
Y495155D01*
X743045Y493892D01*
X743307Y493258D01*
Y486221D01*
X761811Y467717D01*
X786282D01*
Y417384D01*
X776647Y407750D01*
X776303Y407607D01*
X775188Y406862D01*
X774240Y405914D01*
X773495Y404799D01*
X773353Y404455D01*
X763718Y394821D01*
X726235D01*
X726044Y395283D01*
X733097Y402336D01*
X733407Y402800D01*
X733516Y403346D01*
X733516Y403346D01*
Y434644D01*
X740381Y441509D01*
X740690Y441973D01*
X740799Y442520D01*
X740799Y442520D01*
Y446148D01*
X743222D01*
Y453852D01*
X740799D01*
Y490989D01*
X740690Y491536D01*
X740381Y491999D01*
X740380Y491999D01*
X724264Y508116D01*
Y546063D01*
X724155Y546610D01*
X723845Y547074D01*
X723845Y547074D01*
X716665Y554253D01*
X716787Y554709D01*
Y555983D01*
X716458Y557214D01*
X715821Y558317D01*
X714920Y559218D01*
X713816Y559855D01*
X712586Y560185D01*
X711312D01*
X710081Y559855D01*
X708978Y559218D01*
X708077Y558317D01*
X707440Y557214D01*
X707110Y555983D01*
Y554709D01*
X707440Y553479D01*
X708077Y552376D01*
X708978Y551475D01*
X710081Y550838D01*
X711312Y550508D01*
X712586D01*
X713816Y550838D01*
X714920Y551475D01*
X715161Y551716D01*
X721406Y545471D01*
Y507524D01*
X721514Y506977D01*
X721824Y506514D01*
X737941Y490397D01*
Y453852D01*
X735519D01*
Y446148D01*
X737941D01*
Y443112D01*
X731076Y436247D01*
X730766Y435783D01*
X730658Y435236D01*
Y403938D01*
X724731Y398012D01*
X724327Y398195D01*
X724264Y398252D01*
Y414173D01*
X724264Y414173D01*
X724155Y414720D01*
X723845Y415184D01*
X723845Y415184D01*
X708884Y430144D01*
X708421Y430454D01*
X707874Y430563D01*
X649601D01*
X642768Y437397D01*
Y450337D01*
X642937Y450507D01*
X643224Y451200D01*
Y451950D01*
X642937Y452643D01*
X642407Y453173D01*
X641714Y453461D01*
X640964D01*
X640270Y453173D01*
X640158Y453061D01*
X639651Y453567D01*
X638958Y453854D01*
X638208D01*
X637514Y453567D01*
X636984Y453037D01*
X636697Y452344D01*
Y451593D01*
X636984Y450900D01*
X637154Y450731D01*
Y434443D01*
X637262Y433896D01*
X637572Y433432D01*
X643478Y427527D01*
X643941Y427217D01*
X644488Y427108D01*
X646545D01*
X646770Y426828D01*
X646560Y426351D01*
X637087D01*
X633319Y430120D01*
Y453093D01*
X633489Y453263D01*
X633776Y453956D01*
Y454706D01*
X633489Y455399D01*
X632958Y455929D01*
X632265Y456216D01*
X631515D01*
X630822Y455929D01*
X630291Y455399D01*
X630004Y454706D01*
Y453956D01*
X630291Y453263D01*
X630461Y453093D01*
Y429528D01*
X630570Y428981D01*
X630879Y428517D01*
X635484Y423912D01*
X635484Y423912D01*
X635631Y423814D01*
X635704Y423180D01*
X635422Y422898D01*
X634902Y421997D01*
X634633Y420993D01*
Y420972D01*
X642533D01*
Y420993D01*
X642264Y421997D01*
X641744Y422898D01*
X641610Y423032D01*
X641801Y423493D01*
X693383D01*
X700933Y415944D01*
Y415243D01*
X699761D01*
Y410741D01*
X704963D01*
Y415243D01*
X703791D01*
Y416536D01*
X703791Y416536D01*
X703682Y417083D01*
X703372Y417546D01*
X703372Y417546D01*
X695454Y425465D01*
X695645Y425927D01*
X705314D01*
X719437Y411803D01*
Y410009D01*
X694807D01*
X694260Y409901D01*
X693797Y409591D01*
X691879Y407673D01*
X691797Y407707D01*
X690945Y407820D01*
X690093Y407707D01*
X689299Y407378D01*
X688617Y406855D01*
X688298Y406439D01*
X687687D01*
X687367Y406855D01*
X686685Y407378D01*
X685891Y407707D01*
X685039Y407820D01*
X684187Y407707D01*
X683393Y407378D01*
X682712Y406855D01*
X682189Y406174D01*
X681860Y405380D01*
X681747Y404528D01*
Y402559D01*
X681860Y401707D01*
X682189Y400913D01*
X682432Y400595D01*
X680925Y399087D01*
X640932D01*
X640798Y399587D01*
X640948Y399674D01*
X641665Y400391D01*
X642172Y401269D01*
X642434Y402249D01*
Y403263D01*
X642172Y404243D01*
X641665Y405121D01*
X640948Y405838D01*
X640069Y406345D01*
X639090Y406607D01*
X638076D01*
X637096Y406345D01*
X636218Y405838D01*
X635501Y405121D01*
X634994Y404243D01*
X634731Y403263D01*
Y402249D01*
X634994Y401269D01*
X635501Y400391D01*
X636218Y399674D01*
X636368Y399587D01*
X636234Y399087D01*
X619469D01*
X619146Y399411D01*
Y419887D01*
X619037Y420434D01*
X618727Y420897D01*
X618141Y421483D01*
X617678Y421793D01*
X617131Y421902D01*
X616844D01*
Y424324D01*
X609141D01*
Y416621D01*
X616288D01*
Y405615D01*
X615788Y405407D01*
X615357Y405838D01*
X614479Y406345D01*
X613499Y406607D01*
X612485D01*
X611506Y406345D01*
X610627Y405838D01*
X609910Y405121D01*
X609403Y404243D01*
X609141Y403263D01*
Y402249D01*
X609403Y401269D01*
X609910Y400391D01*
X610627Y399674D01*
X611506Y399167D01*
X612485Y398904D01*
X613499D01*
X614479Y399167D01*
X615357Y399674D01*
X615788Y400104D01*
X616288Y399897D01*
Y398819D01*
X616396Y398272D01*
X616706Y397808D01*
X617867Y396648D01*
X618330Y396338D01*
X618877Y396229D01*
X681517D01*
X682063Y396338D01*
X682527Y396648D01*
X685008Y399129D01*
X685008Y399129D01*
X685106Y399276D01*
X685891Y399379D01*
X686108Y399469D01*
X690295Y395283D01*
X690103Y394821D01*
X431557D01*
X401968Y424409D01*
Y484252D01*
X405512Y487795D01*
X547638D01*
X564567Y504724D01*
Y612992D01*
X580376Y628801D01*
X720445D01*
X720636Y628339D01*
X716818Y624521D01*
X716663Y624289D01*
X716608Y624016D01*
Y622315D01*
X714154D01*
X714153Y622315D01*
X713607Y622206D01*
X713143Y621896D01*
X713143Y621896D01*
X710013Y618766D01*
X709703Y618303D01*
X709595Y617756D01*
Y591395D01*
X709425Y591226D01*
X709138Y590533D01*
Y589782D01*
X709425Y589089D01*
X709955Y588559D01*
X710648Y588272D01*
X711399D01*
X712092Y588559D01*
X712622Y589089D01*
X712909Y589782D01*
Y590533D01*
X712622Y591226D01*
X712453Y591395D01*
Y617164D01*
X714746Y619457D01*
X716608D01*
Y618898D01*
X716663Y618624D01*
X716818Y618392D01*
X717605Y617605D01*
X717837Y617450D01*
X718110Y617396D01*
X718124D01*
Y614135D01*
X727125D01*
Y614457D01*
X728827D01*
Y611110D01*
X731248D01*
Y610476D01*
X730033D01*
Y605274D01*
X734534D01*
Y610476D01*
X734106D01*
Y611110D01*
X736528D01*
Y616055D01*
X732226D01*
X731385Y616896D01*
X731385Y616898D01*
X731537Y617396D01*
X744192D01*
X749495Y612093D01*
X749727Y611938D01*
X750000Y611884D01*
X768898D01*
X769171Y611938D01*
X769403Y612093D01*
X769558Y612325D01*
X769612Y612598D01*
Y622441D01*
X769558Y622714D01*
X769403Y622946D01*
X769171Y623101D01*
X768898Y623155D01*
X757383D01*
X757014Y623524D01*
Y627095D01*
X756959Y627368D01*
X756804Y627600D01*
X756573Y627755D01*
X756299Y627809D01*
X750000D01*
X749727Y627755D01*
X749495Y627600D01*
X749340Y627368D01*
X749286Y627095D01*
Y621949D01*
X748797Y621461D01*
X748699Y621526D01*
X748425Y621581D01*
X743234D01*
Y626772D01*
X743180Y627045D01*
X743025Y627277D01*
X741962Y628339D01*
X742154Y628801D01*
X768049D01*
X771850Y625001D01*
D02*
G37*
G36*
X718848Y619886D02*
X718838Y619981D01*
X718808Y620066D01*
X718757Y620141D01*
X718686Y620206D01*
X718595Y620261D01*
X718484Y620306D01*
X718353Y620341D01*
X718201Y620366D01*
X718029Y620381D01*
X717836Y620386D01*
Y621386D01*
X718029Y621391D01*
X718201Y621406D01*
X718353Y621431D01*
X718484Y621466D01*
X718595Y621511D01*
X718686Y621566D01*
X718757Y621631D01*
X718808Y621706D01*
X718838Y621791D01*
X718848Y621886D01*
Y619886D01*
D02*
G37*
G36*
X740945Y628346D02*
X742520Y626772D01*
Y620866D01*
X748425D01*
X748819Y620472D01*
X750000Y621654D01*
Y627095D01*
X756299D01*
Y623228D01*
X757087Y622441D01*
X768898D01*
Y612598D01*
X750000D01*
X744488Y618110D01*
X718110D01*
X717323Y618898D01*
Y619457D01*
X718292D01*
X718343Y619381D01*
X718375Y619359D01*
X718399Y619330D01*
X718490Y619282D01*
X718575Y619226D01*
X718612Y619218D01*
X718646Y619201D01*
X718748Y619191D01*
X718848Y619171D01*
X718886Y619179D01*
X718924Y619175D01*
X719022Y619206D01*
X719122Y619226D01*
X719154Y619247D01*
X719190Y619258D01*
X719269Y619324D01*
X719354Y619381D01*
X719375Y619412D01*
X719404Y619437D01*
X719415Y619457D01*
X722624D01*
X723171Y619566D01*
X723635Y619875D01*
X723945Y620339D01*
X724053Y620886D01*
X723945Y621433D01*
X723635Y621896D01*
X723171Y622206D01*
X722624Y622315D01*
X719415D01*
X719404Y622335D01*
X719375Y622359D01*
X719354Y622391D01*
X719269Y622448D01*
X719190Y622513D01*
X719154Y622525D01*
X719122Y622546D01*
X719022Y622566D01*
X718924Y622596D01*
X718886Y622593D01*
X718848Y622600D01*
X718748Y622580D01*
X718646Y622571D01*
X718612Y622553D01*
X718575Y622546D01*
X718490Y622489D01*
X718399Y622442D01*
X718375Y622412D01*
X718343Y622391D01*
X718292Y622315D01*
X717323D01*
Y624016D01*
X721654Y628346D01*
X740945Y628346D01*
D02*
G37*
G36*
X731056Y615915D02*
X731431Y615597D01*
X731543Y615519D01*
X731648Y615455D01*
X731747Y615406D01*
X731840Y615371D01*
X731925Y615349D01*
X732004Y615342D01*
X729831D01*
X729901Y615344D01*
X729960Y615350D01*
X730007Y615359D01*
X730043Y615373D01*
X730068Y615390D01*
X730081Y615411D01*
X730083Y615435D01*
X730074Y615464D01*
X730053Y615496D01*
X730021Y615532D01*
X730918Y616049D01*
X731056Y615915D01*
D02*
G37*
G36*
X726410Y616791D02*
X726441Y616706D01*
X726491Y616631D01*
X726562Y616566D01*
X726653Y616511D01*
X726765Y616466D01*
X726896Y616431D01*
X727048Y616406D01*
X727220Y616391D01*
X727412Y616386D01*
Y615386D01*
X727220Y615381D01*
X727048Y615366D01*
X726896Y615341D01*
X726765Y615306D01*
X726653Y615261D01*
X726562Y615206D01*
X726491Y615141D01*
X726441Y615066D01*
X726410Y614981D01*
X726400Y614886D01*
Y616886D01*
X726410Y616791D01*
D02*
G37*
G36*
X733582Y611825D02*
X733497Y611795D01*
X733422Y611744D01*
X733357Y611673D01*
X733302Y611582D01*
X733257Y611471D01*
X733222Y611339D01*
X733197Y611187D01*
X733182Y611015D01*
X733177Y610823D01*
X732177D01*
X732172Y611015D01*
X732157Y611187D01*
X732132Y611339D01*
X732097Y611471D01*
X732052Y611582D01*
X731997Y611673D01*
X731932Y611744D01*
X731857Y611795D01*
X731772Y611825D01*
X731677Y611835D01*
X733677D01*
X733582Y611825D01*
D02*
G37*
G36*
X733182Y610570D02*
X733197Y610398D01*
X733222Y610247D01*
X733257Y610115D01*
X733302Y610004D01*
X733357Y609913D01*
X733422Y609842D01*
X733497Y609791D01*
X733582Y609761D01*
X733677Y609751D01*
X731677D01*
X731772Y609761D01*
X731857Y609791D01*
X731932Y609842D01*
X731997Y609913D01*
X732052Y610004D01*
X732097Y610115D01*
X732132Y610247D01*
X732157Y610398D01*
X732172Y610570D01*
X732177Y610763D01*
X733177D01*
X733182Y610570D01*
D02*
G37*
G36*
X689147Y604853D02*
X689046Y604831D01*
X688975Y604795D01*
X688932Y604745D01*
X688917Y604680D01*
X688932Y604601D01*
X688975Y604507D01*
X689046Y604400D01*
X689147Y604277D01*
X689277Y604141D01*
X687862D01*
X687719Y604277D01*
X687576Y604400D01*
X687433Y604507D01*
X687291Y604601D01*
X687149Y604680D01*
X687008Y604745D01*
X686867Y604795D01*
X686727Y604831D01*
X686587Y604853D01*
X686448Y604860D01*
X689277D01*
X689147Y604853D01*
D02*
G37*
G36*
X693307Y617717D02*
X678740D01*
X669685Y608661D01*
X691732D01*
X694095Y606299D01*
Y602362D01*
X690799D01*
Y603340D01*
X690690Y603887D01*
X690381Y604351D01*
X689971Y604760D01*
X689991Y604860D01*
X689987Y604880D01*
X689990Y604900D01*
X689960Y605016D01*
X689937Y605133D01*
X689926Y605150D01*
X689921Y605169D01*
X689849Y605265D01*
X689782Y605365D01*
X689765Y605376D01*
X689753Y605392D01*
X689650Y605453D01*
X689550Y605520D01*
X689530Y605524D01*
X689513Y605534D01*
X689394Y605551D01*
X689277Y605574D01*
X689157D01*
X687835Y606896D01*
X687371Y607206D01*
X686824Y607315D01*
X686277Y607206D01*
X685814Y606896D01*
X685504Y606433D01*
X685395Y605886D01*
X685504Y605339D01*
X685752Y604967D01*
X685735Y604897D01*
X685737Y604878D01*
X685734Y604860D01*
X685757Y604741D01*
X685775Y604621D01*
X685784Y604605D01*
X685788Y604586D01*
X685855Y604486D01*
X685918Y604381D01*
X685933Y604370D01*
X685943Y604355D01*
X686044Y604287D01*
X686141Y604215D01*
X686159Y604210D01*
X686175Y604200D01*
X686294Y604176D01*
X686411Y604146D01*
X686514Y604141D01*
X686554Y604135D01*
X687827Y602862D01*
X687666Y602362D01*
X664961D01*
Y603937D01*
X588583D01*
X585039Y607480D01*
Y612992D01*
X585827Y613779D01*
X605084Y623622D01*
X693307D01*
Y617717D01*
D02*
G37*
G36*
X421843Y602659D02*
X422309Y602466D01*
X422936Y602296D01*
X423725Y602148D01*
X424676Y602024D01*
X427063Y601842D01*
X431858Y601740D01*
Y595740D01*
X430098Y595729D01*
X423725Y595332D01*
X422936Y595185D01*
X422309Y595014D01*
X421843Y594822D01*
X421540Y594606D01*
Y602874D01*
X421843Y602659D01*
D02*
G37*
G36*
X552638Y597570D02*
X552631Y597390D01*
X552606Y591630D01*
X546606D01*
X546567Y597630D01*
X552645D01*
X552638Y597570D01*
D02*
G37*
G36*
X711525Y592287D02*
X711592Y591224D01*
X711616Y591093D01*
X711645Y590988D01*
X711677Y590911D01*
X711713Y590860D01*
X710335D01*
X710371Y590911D01*
X710403Y590988D01*
X710431Y591093D01*
X710456Y591224D01*
X710476Y591383D01*
X710507Y591781D01*
X710524Y592580D01*
X711524D01*
X711525Y592287D01*
D02*
G37*
G36*
X763741Y574527D02*
X763771Y574442D01*
X763822Y574367D01*
X763893Y574302D01*
X763984Y574247D01*
X764095Y574202D01*
X764227Y574167D01*
X764378Y574142D01*
X764550Y574127D01*
X764743Y574122D01*
Y573122D01*
X764550Y573117D01*
X764378Y573102D01*
X764227Y573077D01*
X764095Y573042D01*
X763984Y572997D01*
X763893Y572942D01*
X763822Y572877D01*
X763771Y572802D01*
X763741Y572717D01*
X763731Y572622D01*
Y574622D01*
X763741Y574527D01*
D02*
G37*
G36*
X783202Y572058D02*
X783216Y571888D01*
X783239Y571738D01*
X783272Y571608D01*
X783315Y571498D01*
X783367Y571408D01*
X783428Y571338D01*
X783499Y571288D01*
X783579Y571258D01*
X783669Y571248D01*
X781725D01*
X781814Y571258D01*
X781895Y571288D01*
X781965Y571338D01*
X782027Y571408D01*
X782079Y571498D01*
X782121Y571608D01*
X782154Y571738D01*
X782178Y571888D01*
X782192Y572058D01*
X782197Y572248D01*
X783197D01*
X783202Y572058D01*
D02*
G37*
G36*
X423290Y578314D02*
X423483Y577849D01*
X423806Y577285D01*
X424260Y576623D01*
X424844Y575863D01*
X426404Y574046D01*
X429722Y570583D01*
X425480Y566341D01*
X424227Y567577D01*
X419440Y571804D01*
X418778Y572257D01*
X418214Y572580D01*
X417749Y572773D01*
X417382Y572835D01*
X423228Y578681D01*
X423290Y578314D01*
D02*
G37*
G36*
X763741Y568227D02*
X763771Y568142D01*
X763822Y568067D01*
X763893Y568002D01*
X763984Y567947D01*
X764095Y567902D01*
X764227Y567867D01*
X764378Y567842D01*
X764550Y567827D01*
X764743Y567822D01*
Y566822D01*
X764550Y566817D01*
X764378Y566802D01*
X764227Y566777D01*
X764095Y566742D01*
X763984Y566697D01*
X763893Y566642D01*
X763822Y566577D01*
X763771Y566502D01*
X763741Y566417D01*
X763731Y566322D01*
Y568322D01*
X763741Y568227D01*
D02*
G37*
G36*
X760679Y566322D02*
X760669Y566417D01*
X760638Y566502D01*
X760588Y566577D01*
X760517Y566642D01*
X760426Y566697D01*
X760314Y566742D01*
X760183Y566777D01*
X760031Y566802D01*
X759859Y566817D01*
X759667Y566822D01*
Y567822D01*
X759859Y567827D01*
X760031Y567842D01*
X760183Y567867D01*
X760314Y567902D01*
X760426Y567947D01*
X760517Y568002D01*
X760588Y568067D01*
X760638Y568142D01*
X760669Y568227D01*
X760679Y568322D01*
Y566322D01*
D02*
G37*
G36*
X778579Y565356D02*
X778499Y565326D01*
X778428Y565276D01*
X778367Y565206D01*
X778315Y565116D01*
X778272Y565006D01*
X778239Y564876D01*
X778216Y564726D01*
X778202Y564556D01*
X778197Y564366D01*
X777197D01*
X777192Y564556D01*
X777178Y564726D01*
X777154Y564876D01*
X777121Y565006D01*
X777079Y565116D01*
X777027Y565206D01*
X776965Y565276D01*
X776895Y565326D01*
X776814Y565356D01*
X776725Y565366D01*
X778669D01*
X778579Y565356D01*
D02*
G37*
G36*
X773579D02*
X773499Y565326D01*
X773428Y565276D01*
X773367Y565206D01*
X773315Y565116D01*
X773272Y565006D01*
X773239Y564876D01*
X773216Y564726D01*
X773202Y564556D01*
X773197Y564366D01*
X772197D01*
X772192Y564556D01*
X772178Y564726D01*
X772154Y564876D01*
X772121Y565006D01*
X772079Y565116D01*
X772027Y565206D01*
X771965Y565276D01*
X771895Y565326D01*
X771814Y565356D01*
X771725Y565366D01*
X773669D01*
X773579Y565356D01*
D02*
G37*
G36*
X773202Y564113D02*
X773217Y563941D01*
X773242Y563790D01*
X773277Y563658D01*
X773322Y563547D01*
X773377Y563456D01*
X773442Y563385D01*
X773517Y563334D01*
X773602Y563304D01*
X773697Y563294D01*
X771697D01*
X771792Y563304D01*
X771877Y563334D01*
X771952Y563385D01*
X772017Y563456D01*
X772072Y563547D01*
X772117Y563658D01*
X772152Y563790D01*
X772177Y563941D01*
X772192Y564113D01*
X772197Y564306D01*
X773197D01*
X773202Y564113D01*
D02*
G37*
G36*
X786221Y555905D02*
Y542520D01*
X785827Y542126D01*
X777559D01*
X769291Y550394D01*
Y556693D01*
X770472Y557874D01*
X784252D01*
X786221Y555905D01*
D02*
G37*
G36*
X785416Y527217D02*
X785254Y526981D01*
X785112Y526587D01*
X784988Y526036D01*
X784883Y525327D01*
X784731Y523438D01*
X784646Y519422D01*
X776772D01*
X776762Y520918D01*
X776429Y526036D01*
X776306Y526587D01*
X776163Y526981D01*
X776001Y527217D01*
X775821Y527296D01*
X785597D01*
X785416Y527217D01*
D02*
G37*
G36*
X754885Y527229D02*
X754215Y526992D01*
X753625Y526598D01*
X753113Y526046D01*
X752680Y525336D01*
X752326Y524469D01*
X752050Y523444D01*
X751853Y522261D01*
X751735Y520920D01*
X751696Y519422D01*
X743822D01*
X743782Y520920D01*
X743664Y522261D01*
X743467Y523444D01*
X743192Y524469D01*
X742837Y525336D01*
X742404Y526046D01*
X741892Y526598D01*
X741302Y526992D01*
X740633Y527229D01*
X739885Y527308D01*
X755633D01*
X754885Y527229D01*
D02*
G37*
G36*
X739875Y453746D02*
X739890Y453574D01*
X739915Y453422D01*
X739950Y453290D01*
X739995Y453179D01*
X740050Y453088D01*
X740115Y453017D01*
X740190Y452966D01*
X740275Y452936D01*
X740370Y452926D01*
X738370D01*
X738465Y452936D01*
X738550Y452966D01*
X738625Y453017D01*
X738690Y453088D01*
X738745Y453179D01*
X738790Y453290D01*
X738825Y453422D01*
X738850Y453574D01*
X738865Y453746D01*
X738870Y453938D01*
X739870D01*
X739875Y453746D01*
D02*
G37*
G36*
X632543Y453577D02*
X632511Y453500D01*
X632482Y453395D01*
X632458Y453264D01*
X632437Y453105D01*
X632407Y452707D01*
X632390Y451908D01*
X631390D01*
X631388Y452202D01*
X631322Y453264D01*
X631297Y453395D01*
X631269Y453500D01*
X631237Y453577D01*
X631201Y453628D01*
X632579D01*
X632543Y453577D01*
D02*
G37*
G36*
X639236Y451215D02*
X639204Y451137D01*
X639175Y451033D01*
X639151Y450902D01*
X639130Y450743D01*
X639100Y450345D01*
X639083Y449546D01*
X638083D01*
X638081Y449839D01*
X638015Y450902D01*
X637990Y451033D01*
X637962Y451137D01*
X637930Y451215D01*
X637894Y451266D01*
X639272D01*
X639236Y451215D01*
D02*
G37*
G36*
X641992Y450821D02*
X641959Y450744D01*
X641931Y450639D01*
X641907Y450508D01*
X641886Y450349D01*
X641856Y449952D01*
X641839Y449152D01*
X640839D01*
X640837Y449446D01*
X640771Y450508D01*
X640746Y450639D01*
X640718Y450744D01*
X640686Y450821D01*
X640650Y450872D01*
X642028D01*
X641992Y450821D01*
D02*
G37*
G36*
X740275Y447052D02*
X740190Y447022D01*
X740115Y446972D01*
X740050Y446902D01*
X739995Y446812D01*
X739950Y446702D01*
X739915Y446572D01*
X739890Y446422D01*
X739875Y446252D01*
X739870Y446062D01*
X738870D01*
X738865Y446252D01*
X738850Y446422D01*
X738825Y446572D01*
X738790Y446702D01*
X738745Y446812D01*
X738690Y446902D01*
X738625Y446972D01*
X738550Y447022D01*
X738465Y447052D01*
X738370Y447062D01*
X740370D01*
X740275Y447052D01*
D02*
G37*
G36*
X615928Y421378D02*
X615959Y421292D01*
X616009Y421217D01*
X616080Y421152D01*
X616171Y421098D01*
X616282Y421053D01*
X616414Y421018D01*
X616566Y420993D01*
X616738Y420977D01*
X616930Y420972D01*
Y419973D01*
X616738Y419968D01*
X616566Y419952D01*
X616414Y419928D01*
X616282Y419893D01*
X616171Y419847D01*
X616080Y419793D01*
X616009Y419728D01*
X615959Y419653D01*
X615928Y419567D01*
X615918Y419473D01*
Y421473D01*
X615928Y421378D01*
D02*
G37*
G36*
X702867Y415338D02*
X702882Y415166D01*
X702907Y415014D01*
X702942Y414882D01*
X702987Y414771D01*
X703042Y414680D01*
X703107Y414609D01*
X703182Y414559D01*
X703267Y414528D01*
X703362Y414518D01*
X701362D01*
X701457Y414528D01*
X701542Y414559D01*
X701617Y414609D01*
X701682Y414680D01*
X701737Y414771D01*
X701782Y414882D01*
X701817Y415014D01*
X701842Y415166D01*
X701857Y415338D01*
X701862Y415530D01*
X702862D01*
X702867Y415338D01*
D02*
G37*
G36*
X693555Y406621D02*
X693400Y406460D01*
X693270Y406308D01*
X693164Y406167D01*
X693082Y406036D01*
X693024Y405915D01*
X692990Y405804D01*
X692981Y405703D01*
X692996Y405612D01*
X693034Y405532D01*
X693097Y405461D01*
X691594Y406774D01*
X691674Y406720D01*
X691762Y406690D01*
X691860Y406683D01*
X691967Y406699D01*
X692083Y406739D01*
X692209Y406801D01*
X692344Y406887D01*
X692488Y406996D01*
X692641Y407128D01*
X692804Y407284D01*
X693555Y406621D01*
D02*
G37*
G36*
X687183Y401688D02*
X687149Y401604D01*
X687139Y401510D01*
X687152Y401405D01*
X687189Y401292D01*
X687249Y401168D01*
X687334Y401035D01*
X687442Y400892D01*
X687574Y400739D01*
X687729Y400576D01*
X687022Y399869D01*
X686860Y400025D01*
X686564Y400265D01*
X686430Y400349D01*
X686307Y400410D01*
X686193Y400447D01*
X686089Y400460D01*
X685994Y400449D01*
X685910Y400415D01*
X685835Y400357D01*
X687241Y401763D01*
X687183Y401688D01*
D02*
G37*
G36*
X697751Y400427D02*
X697667Y400392D01*
X697593Y400333D01*
X697528Y400250D01*
X697474Y400143D01*
X697430Y400013D01*
X697395Y399859D01*
X697370Y399681D01*
X697355Y399480D01*
X697350Y399255D01*
X696350D01*
X696345Y399480D01*
X696306Y399859D01*
X696271Y400013D01*
X696227Y400143D01*
X696172Y400250D01*
X696108Y400333D01*
X696034Y400392D01*
X695950Y400427D01*
X695856Y400439D01*
X697845D01*
X697751Y400427D01*
D02*
G37*
G36*
X721406Y407120D02*
Y399067D01*
X716228D01*
X716129Y399567D01*
X716262Y399622D01*
X716965Y400161D01*
X717504Y400864D01*
X717843Y401681D01*
X717958Y402559D01*
Y403043D01*
X714567D01*
Y404043D01*
X717958D01*
Y404528D01*
X717843Y405405D01*
X717504Y406223D01*
X717175Y406651D01*
X717422Y407151D01*
X720169D01*
X720716Y407260D01*
X720906Y407387D01*
X721406Y407120D01*
D02*
G37*
%LPC*%
G36*
X727125Y612637D02*
X718124D01*
Y609135D01*
X727125D01*
Y612637D01*
D02*
G37*
G36*
X618760Y601394D02*
X618610D01*
Y596957D01*
X623047D01*
Y597107D01*
X622711Y598362D01*
X622061Y599488D01*
X621142Y600407D01*
X620016Y601057D01*
X618760Y601394D01*
D02*
G37*
G36*
X661674D02*
X661524D01*
Y596957D01*
X665961D01*
Y597107D01*
X665624Y598362D01*
X664974Y599488D01*
X664055Y600407D01*
X662929Y601057D01*
X661674Y601394D01*
D02*
G37*
G36*
X660524D02*
X660374D01*
X659118Y601057D01*
X657992Y600407D01*
X657073Y599488D01*
X656423Y598362D01*
X656087Y597107D01*
Y596957D01*
X660524D01*
Y601394D01*
D02*
G37*
G36*
X617610D02*
X617460D01*
X616205Y601057D01*
X615079Y600407D01*
X614160Y599488D01*
X613510Y598362D01*
X613173Y597107D01*
Y596957D01*
X617610D01*
Y601394D01*
D02*
G37*
G36*
X665961Y595957D02*
X661524D01*
Y591520D01*
X661674D01*
X662929Y591856D01*
X664055Y592506D01*
X664974Y593425D01*
X665624Y594551D01*
X665961Y595807D01*
Y595957D01*
D02*
G37*
G36*
X660524D02*
X656087D01*
Y595807D01*
X656423Y594551D01*
X657073Y593425D01*
X657992Y592506D01*
X659118Y591856D01*
X660374Y591520D01*
X660524D01*
Y595957D01*
D02*
G37*
G36*
X623047D02*
X618610D01*
Y591520D01*
X618760D01*
X620016Y591856D01*
X621142Y592506D01*
X622061Y593425D01*
X622711Y594551D01*
X623047Y595807D01*
Y595957D01*
D02*
G37*
G36*
X617610D02*
X613173D01*
Y595807D01*
X613510Y594551D01*
X614160Y593425D01*
X615079Y592506D01*
X616205Y591856D01*
X617460Y591520D01*
X617610D01*
Y595957D01*
D02*
G37*
G36*
X783465Y603864D02*
X762992D01*
X762719Y603810D01*
X762487Y603655D01*
X759731Y600899D01*
X759576Y600667D01*
X759522Y600394D01*
Y596063D01*
X759576Y595790D01*
X759731Y595558D01*
X761306Y593983D01*
X761538Y593828D01*
X761811Y593774D01*
X765578D01*
X766012Y593614D01*
X766012Y593274D01*
Y591586D01*
X759112D01*
X758942Y591756D01*
X758249Y592043D01*
X757499D01*
X756806Y591756D01*
X756275Y591226D01*
X755988Y590533D01*
Y589782D01*
X756275Y589089D01*
X756806Y588559D01*
X757499Y588272D01*
X758249D01*
X758942Y588559D01*
X759112Y588728D01*
X766012D01*
Y586307D01*
X769382D01*
Y593274D01*
X769382Y593614D01*
X769816Y593774D01*
X770578D01*
X771012Y593614D01*
Y592910D01*
X771010Y592901D01*
X771012Y592893D01*
Y587024D01*
X771010Y587015D01*
X771012Y587007D01*
Y586307D01*
X771012D01*
Y584500D01*
X760293D01*
X760123Y584670D01*
X759430Y584957D01*
X758680D01*
X757987Y584670D01*
X757456Y584139D01*
X757169Y583446D01*
Y582696D01*
X757456Y582003D01*
X757987Y581472D01*
X758680Y581185D01*
X759430D01*
X760123Y581472D01*
X760293Y581642D01*
X771855D01*
X772402Y581751D01*
X772866Y582060D01*
X773451Y582646D01*
X773761Y583110D01*
X773870Y583657D01*
Y586307D01*
X774382D01*
Y592893D01*
X774384Y592901D01*
X774382Y592910D01*
Y593614D01*
X774816Y593774D01*
X783071D01*
X783344Y593828D01*
X783576Y593983D01*
X784364Y594770D01*
X784518Y595002D01*
X784573Y595276D01*
X784573Y602756D01*
X784518Y603029D01*
X784364Y603261D01*
X783970Y603655D01*
X783738Y603810D01*
X783465Y603864D01*
D02*
G37*
G36*
X572941Y580894D02*
Y579240D01*
X574595D01*
X574290Y579976D01*
X573676Y580589D01*
X572941Y580894D01*
D02*
G37*
G36*
X571941D02*
X571206Y580589D01*
X570592Y579976D01*
X570287Y579240D01*
X571941D01*
Y580894D01*
D02*
G37*
G36*
X673335Y579713D02*
Y578059D01*
X674988D01*
X674684Y578794D01*
X674070Y579408D01*
X673335Y579713D01*
D02*
G37*
G36*
X672335D02*
X671599Y579408D01*
X670986Y578794D01*
X670681Y578059D01*
X672335D01*
Y579713D01*
D02*
G37*
G36*
X624122D02*
Y578059D01*
X625776D01*
X625471Y578794D01*
X624858Y579408D01*
X624122Y579713D01*
D02*
G37*
G36*
X623122D02*
X622387Y579408D01*
X621773Y578794D01*
X621468Y578059D01*
X623122D01*
Y579713D01*
D02*
G37*
G36*
X574595Y578240D02*
X572941D01*
Y576586D01*
X573676Y576891D01*
X574290Y577505D01*
X574595Y578240D01*
D02*
G37*
G36*
X571941D02*
X570287D01*
X570592Y577505D01*
X571206Y576891D01*
X571941Y576586D01*
Y578240D01*
D02*
G37*
G36*
X674988Y577059D02*
X673335D01*
Y575405D01*
X674070Y575710D01*
X674684Y576324D01*
X674988Y577059D01*
D02*
G37*
G36*
X672335D02*
X670681D01*
X670986Y576324D01*
X671599Y575710D01*
X672335Y575405D01*
Y577059D01*
D02*
G37*
G36*
X625776D02*
X624122D01*
Y575405D01*
X624858Y575710D01*
X625471Y576324D01*
X625776Y577059D01*
D02*
G37*
G36*
X623122D02*
X621468D01*
X621773Y576324D01*
X622387Y575710D01*
X623122Y575405D01*
Y577059D01*
D02*
G37*
G36*
X745257Y577476D02*
X744507D01*
X743814Y577189D01*
X743644Y577020D01*
X704724D01*
X704178Y576911D01*
X703714Y576601D01*
X701745Y574633D01*
X701436Y574169D01*
X701327Y573622D01*
Y526970D01*
X686391Y512034D01*
X686081Y511571D01*
X685972Y511024D01*
Y504632D01*
X685337Y504265D01*
X684711Y503639D01*
X684269Y502873D01*
X684039Y502017D01*
Y501132D01*
X684269Y500277D01*
X684711Y499510D01*
X685337Y498884D01*
X686104Y498442D01*
X686959Y498213D01*
X687844D01*
X688699Y498442D01*
X689466Y498884D01*
X690092Y499510D01*
X690535Y500277D01*
X690764Y501132D01*
Y502017D01*
X690535Y502873D01*
X690092Y503639D01*
X689466Y504265D01*
X688831Y504632D01*
Y510432D01*
X703766Y525367D01*
X703766Y525367D01*
X704076Y525831D01*
X704185Y526378D01*
X704185Y526378D01*
Y573030D01*
X705316Y574161D01*
X743644D01*
X743814Y573992D01*
X744507Y573705D01*
X745257D01*
X745950Y573992D01*
X746481Y574522D01*
X746768Y575215D01*
Y575966D01*
X746481Y576659D01*
X745950Y577189D01*
X745257Y577476D01*
D02*
G37*
G36*
X741445Y570264D02*
Y568610D01*
X743099D01*
X742794Y569346D01*
X742180Y569959D01*
X741445Y570264D01*
D02*
G37*
G36*
X740445D02*
X739709Y569959D01*
X739096Y569346D01*
X738791Y568610D01*
X740445D01*
Y570264D01*
D02*
G37*
G36*
X743099Y567610D02*
X741445D01*
Y565956D01*
X742180Y566261D01*
X742794Y566875D01*
X743099Y567610D01*
D02*
G37*
G36*
X740445D02*
X738791D01*
X739096Y566875D01*
X739709Y566261D01*
X740445Y565956D01*
Y567610D01*
D02*
G37*
G36*
X607032Y561824D02*
X607012D01*
Y558374D01*
X610462D01*
Y558394D01*
X610193Y559399D01*
X609673Y560299D01*
X608937Y561035D01*
X608037Y561555D01*
X607032Y561824D01*
D02*
G37*
G36*
X606012D02*
X605992D01*
X604987Y561555D01*
X604086Y561035D01*
X603351Y560299D01*
X602831Y559399D01*
X602562Y558394D01*
Y558374D01*
X606012D01*
Y561824D01*
D02*
G37*
G36*
X663098Y556878D02*
Y555224D01*
X664752D01*
X664447Y555960D01*
X663834Y556573D01*
X663098Y556878D01*
D02*
G37*
G36*
X662098D02*
X661363Y556573D01*
X660749Y555960D01*
X660445Y555224D01*
X662098D01*
Y556878D01*
D02*
G37*
G36*
X584773Y561726D02*
X577070D01*
Y554023D01*
X584773D01*
Y561726D01*
D02*
G37*
G36*
X610462Y557374D02*
X607012D01*
Y553924D01*
X607032D01*
X608037Y554193D01*
X608937Y554713D01*
X609673Y555449D01*
X610193Y556349D01*
X610462Y557354D01*
Y557374D01*
D02*
G37*
G36*
X606012D02*
X602562D01*
Y557354D01*
X602831Y556349D01*
X603351Y555449D01*
X604086Y554713D01*
X604987Y554193D01*
X605992Y553924D01*
X606012D01*
Y557374D01*
D02*
G37*
G36*
X664752Y554224D02*
X663098D01*
Y552571D01*
X663834Y552875D01*
X664447Y553489D01*
X664752Y554224D01*
D02*
G37*
G36*
X662098D02*
X660445D01*
X660749Y553489D01*
X661363Y552875D01*
X662098Y552571D01*
Y554224D01*
D02*
G37*
G36*
X572154Y554122D02*
Y552468D01*
X573807D01*
X573503Y553204D01*
X572889Y553818D01*
X572154Y554122D01*
D02*
G37*
G36*
X571153D02*
X570418Y553818D01*
X569804Y553204D01*
X569500Y552468D01*
X571153D01*
Y554122D01*
D02*
G37*
G36*
X573807Y551469D02*
X572154D01*
Y549815D01*
X572889Y550119D01*
X573503Y550733D01*
X573807Y551469D01*
D02*
G37*
G36*
X571153D02*
X569500D01*
X569804Y550733D01*
X570418Y550119D01*
X571153Y549815D01*
Y551469D01*
D02*
G37*
G36*
X663098Y543099D02*
Y541445D01*
X664752D01*
X664447Y542180D01*
X663834Y542794D01*
X663098Y543099D01*
D02*
G37*
G36*
X662098D02*
X661363Y542794D01*
X660749Y542180D01*
X660445Y541445D01*
X662098D01*
Y543099D01*
D02*
G37*
G36*
X664752Y540445D02*
X663098D01*
Y538791D01*
X663834Y539096D01*
X664447Y539709D01*
X664752Y540445D01*
D02*
G37*
G36*
X662098D02*
X660445D01*
X660749Y539709D01*
X661363Y539096D01*
X662098Y538791D01*
Y540445D01*
D02*
G37*
G36*
X572154Y538374D02*
Y536721D01*
X573807D01*
X573503Y537456D01*
X572889Y538069D01*
X572154Y538374D01*
D02*
G37*
G36*
X571153D02*
X570418Y538069D01*
X569804Y537456D01*
X569500Y536721D01*
X571153D01*
Y538374D01*
D02*
G37*
G36*
X607019Y544009D02*
X606005D01*
X605025Y543747D01*
X604147Y543239D01*
X603430Y542522D01*
X602923Y541644D01*
X602660Y540664D01*
Y539650D01*
X602923Y538671D01*
X603430Y537793D01*
X604147Y537076D01*
X605025Y536568D01*
X606005Y536306D01*
X607019D01*
X607999Y536568D01*
X608877Y537076D01*
X609594Y537793D01*
X610101Y538671D01*
X610363Y539650D01*
Y540664D01*
X610101Y541644D01*
X609594Y542522D01*
X608877Y543239D01*
X607999Y543747D01*
X607019Y544009D01*
D02*
G37*
G36*
X581428D02*
X580414D01*
X579435Y543747D01*
X578556Y543239D01*
X577839Y542522D01*
X577332Y541644D01*
X577070Y540664D01*
Y539650D01*
X577332Y538671D01*
X577839Y537793D01*
X578556Y537076D01*
X579435Y536568D01*
X580414Y536306D01*
X581428D01*
X582408Y536568D01*
X583286Y537076D01*
X584003Y537793D01*
X584510Y538671D01*
X584773Y539650D01*
Y540664D01*
X584510Y541644D01*
X584003Y542522D01*
X583286Y543239D01*
X582408Y543747D01*
X581428Y544009D01*
D02*
G37*
G36*
X573807Y535720D02*
X572154D01*
Y534067D01*
X572889Y534371D01*
X573503Y534985D01*
X573807Y535720D01*
D02*
G37*
G36*
X571153D02*
X569500D01*
X569804Y534985D01*
X570418Y534371D01*
X571153Y534067D01*
Y535720D01*
D02*
G37*
G36*
X712586Y540500D02*
X711312D01*
X710081Y540170D01*
X708978Y539533D01*
X708077Y538632D01*
X707440Y537529D01*
X707110Y536298D01*
Y535024D01*
X707440Y533794D01*
X708077Y532690D01*
X708978Y531790D01*
X710081Y531153D01*
X711312Y530823D01*
X712586D01*
X713816Y531153D01*
X714920Y531790D01*
X715821Y532690D01*
X716458Y533794D01*
X716787Y535024D01*
Y536298D01*
X716458Y537529D01*
X715821Y538632D01*
X714920Y539533D01*
X713816Y540170D01*
X712586Y540500D01*
D02*
G37*
G36*
X576090Y522626D02*
Y520972D01*
X577744D01*
X577440Y521708D01*
X576826Y522322D01*
X576090Y522626D01*
D02*
G37*
G36*
X575091D02*
X574355Y522322D01*
X573741Y521708D01*
X573437Y520972D01*
X575091D01*
Y522626D01*
D02*
G37*
G36*
X577744Y519972D02*
X576090D01*
Y518319D01*
X576826Y518623D01*
X577440Y519237D01*
X577744Y519972D01*
D02*
G37*
G36*
X575091D02*
X573437D01*
X573741Y519237D01*
X574355Y518623D01*
X575091Y518319D01*
Y519972D01*
D02*
G37*
G36*
X740264Y512390D02*
Y510736D01*
X741918D01*
X741613Y511472D01*
X740999Y512085D01*
X740264Y512390D01*
D02*
G37*
G36*
X739264D02*
X738528Y512085D01*
X737915Y511472D01*
X737610Y510736D01*
X739264D01*
Y512390D01*
D02*
G37*
G36*
X741918Y509736D02*
X740264D01*
Y508082D01*
X740999Y508387D01*
X741613Y509001D01*
X741918Y509736D01*
D02*
G37*
G36*
X739264D02*
X737610D01*
X737915Y509001D01*
X738528Y508387D01*
X739264Y508082D01*
Y509736D01*
D02*
G37*
G36*
X576090Y502941D02*
Y501287D01*
X577744D01*
X577440Y502023D01*
X576826Y502636D01*
X576090Y502941D01*
D02*
G37*
G36*
X575091D02*
X574355Y502636D01*
X573741Y502023D01*
X573437Y501287D01*
X575091D01*
Y502941D01*
D02*
G37*
G36*
X709555Y501760D02*
Y500106D01*
X711209D01*
X710904Y500842D01*
X710291Y501455D01*
X709555Y501760D01*
D02*
G37*
G36*
X708555D02*
X707820Y501455D01*
X707206Y500842D01*
X706901Y500106D01*
X708555D01*
Y501760D01*
D02*
G37*
G36*
X577744Y500287D02*
X576090D01*
Y498634D01*
X576826Y498938D01*
X577440Y499552D01*
X577744Y500287D01*
D02*
G37*
G36*
X575091D02*
X573437D01*
X573741Y499552D01*
X574355Y498938D01*
X575091Y498634D01*
Y500287D01*
D02*
G37*
G36*
X677608Y504937D02*
X676723D01*
X675868Y504708D01*
X675101Y504265D01*
X674475Y503639D01*
X674032Y502873D01*
X673803Y502017D01*
Y501132D01*
X674032Y500277D01*
X674475Y499510D01*
X675101Y498884D01*
X675868Y498442D01*
X676723Y498213D01*
X677608D01*
X678463Y498442D01*
X679230Y498884D01*
X679856Y499510D01*
X680298Y500277D01*
X680527Y501132D01*
Y502017D01*
X680298Y502873D01*
X679856Y503639D01*
X679230Y504265D01*
X678463Y504708D01*
X677608Y504937D01*
D02*
G37*
G36*
X711209Y499106D02*
X709555D01*
Y497453D01*
X710291Y497757D01*
X710904Y498371D01*
X711209Y499106D01*
D02*
G37*
G36*
X708555D02*
X706901D01*
X707206Y498371D01*
X707820Y497757D01*
X708555Y497453D01*
Y499106D01*
D02*
G37*
G36*
X677665Y494905D02*
Y491957D01*
X680614D01*
X680390Y492793D01*
X679935Y493582D01*
X679290Y494226D01*
X678501Y494682D01*
X677665Y494905D01*
D02*
G37*
G36*
X676665Y494905D02*
X675830Y494682D01*
X675040Y494226D01*
X674396Y493582D01*
X673941Y492793D01*
X673717Y491957D01*
X676665D01*
Y494905D01*
D02*
G37*
G36*
X687844Y494819D02*
X686959D01*
X686104Y494590D01*
X685337Y494147D01*
X684711Y493521D01*
X684269Y492755D01*
X684039Y491899D01*
Y491014D01*
X684269Y490159D01*
X684711Y489392D01*
X685337Y488766D01*
X686104Y488324D01*
X686959Y488095D01*
X687844D01*
X688699Y488324D01*
X689466Y488766D01*
X690092Y489392D01*
X690535Y490159D01*
X690764Y491014D01*
Y491899D01*
X690535Y492755D01*
X690092Y493521D01*
X689466Y494147D01*
X688699Y494590D01*
X687844Y494819D01*
D02*
G37*
G36*
X680614Y490957D02*
X677665D01*
Y488008D01*
X678501Y488232D01*
X679290Y488688D01*
X679935Y489332D01*
X680390Y490121D01*
X680614Y490957D01*
D02*
G37*
G36*
X676665D02*
X673717D01*
X673941Y490121D01*
X674396Y489332D01*
X675040Y488688D01*
X675830Y488232D01*
X676665Y488008D01*
Y490957D01*
D02*
G37*
G36*
X719791Y489162D02*
Y487508D01*
X721445D01*
X721140Y488243D01*
X720527Y488857D01*
X719791Y489162D01*
D02*
G37*
G36*
X718791D02*
X718056Y488857D01*
X717442Y488243D01*
X717138Y487508D01*
X718791D01*
Y489162D01*
D02*
G37*
G36*
X721445Y486508D02*
X719791D01*
Y484854D01*
X720527Y485159D01*
X721140Y485772D01*
X721445Y486508D01*
D02*
G37*
G36*
X718791D02*
X717138D01*
X717442Y485772D01*
X718056Y485159D01*
X718791Y484854D01*
Y486508D01*
D02*
G37*
G36*
X557980Y469083D02*
Y467429D01*
X559634D01*
X559329Y468165D01*
X558716Y468778D01*
X557980Y469083D01*
D02*
G37*
G36*
X556980D02*
X556245Y468778D01*
X555631Y468165D01*
X555327Y467429D01*
X556980D01*
Y469083D01*
D02*
G37*
G36*
X546169D02*
Y467429D01*
X547823D01*
X547518Y468165D01*
X546905Y468778D01*
X546169Y469083D01*
D02*
G37*
G36*
X545169D02*
X544434Y468778D01*
X543820Y468165D01*
X543516Y467429D01*
X545169D01*
Y469083D01*
D02*
G37*
G36*
X538295D02*
Y467429D01*
X539949D01*
X539644Y468165D01*
X539031Y468778D01*
X538295Y469083D01*
D02*
G37*
G36*
X537295D02*
X536560Y468778D01*
X535946Y468165D01*
X535642Y467429D01*
X537295D01*
Y469083D01*
D02*
G37*
G36*
X642626Y467508D02*
Y465854D01*
X644280D01*
X643975Y466590D01*
X643362Y467203D01*
X642626Y467508D01*
D02*
G37*
G36*
X641626D02*
X640891Y467203D01*
X640277Y466590D01*
X639972Y465854D01*
X641626D01*
Y467508D01*
D02*
G37*
G36*
X650500Y467114D02*
Y465461D01*
X652154D01*
X651849Y466196D01*
X651235Y466810D01*
X650500Y467114D01*
D02*
G37*
G36*
X649500D02*
X648765Y466810D01*
X648151Y466196D01*
X647846Y465461D01*
X649500D01*
Y467114D01*
D02*
G37*
G36*
X442015Y470318D02*
X437513D01*
Y469146D01*
X435118D01*
X434572Y469037D01*
X434108Y468727D01*
X433129Y467748D01*
X427646D01*
Y462016D01*
X436921D01*
Y466288D01*
X437513D01*
Y465116D01*
X442015D01*
Y470318D01*
D02*
G37*
G36*
X559634Y466429D02*
X557980D01*
Y464775D01*
X558716Y465080D01*
X559329Y465694D01*
X559634Y466429D01*
D02*
G37*
G36*
X556980D02*
X555327D01*
X555631Y465694D01*
X556245Y465080D01*
X556980Y464775D01*
Y466429D01*
D02*
G37*
G36*
X547823D02*
X546169D01*
Y464775D01*
X546905Y465080D01*
X547518Y465694D01*
X547823Y466429D01*
D02*
G37*
G36*
X545169D02*
X543516D01*
X543820Y465694D01*
X544434Y465080D01*
X545169Y464775D01*
Y466429D01*
D02*
G37*
G36*
X539949D02*
X538295D01*
Y464775D01*
X539031Y465080D01*
X539644Y465694D01*
X539949Y466429D01*
D02*
G37*
G36*
X537295D02*
X535642D01*
X535946Y465694D01*
X536560Y465080D01*
X537295Y464775D01*
Y466429D01*
D02*
G37*
G36*
X754831Y465933D02*
Y464280D01*
X756484D01*
X756180Y465015D01*
X755566Y465629D01*
X754831Y465933D01*
D02*
G37*
G36*
X753831D02*
X753095Y465629D01*
X752482Y465015D01*
X752177Y464280D01*
X753831D01*
Y465933D01*
D02*
G37*
G36*
X644280Y464854D02*
X642626D01*
Y463201D01*
X643362Y463505D01*
X643975Y464119D01*
X644280Y464854D01*
D02*
G37*
G36*
X641626D02*
X639972D01*
X640277Y464119D01*
X640891Y463505D01*
X641626Y463201D01*
Y464854D01*
D02*
G37*
G36*
X652154Y464461D02*
X650500D01*
Y462807D01*
X651235Y463112D01*
X651849Y463725D01*
X652154Y464461D01*
D02*
G37*
G36*
X649500D02*
X647846D01*
X648151Y463725D01*
X648765Y463112D01*
X649500Y462807D01*
Y464461D01*
D02*
G37*
G36*
X756484Y463279D02*
X754831D01*
Y461626D01*
X755566Y461931D01*
X756180Y462544D01*
X756484Y463279D01*
D02*
G37*
G36*
X753831D02*
X752177D01*
X752482Y462544D01*
X753095Y461931D01*
X753831Y461626D01*
Y463279D01*
D02*
G37*
G36*
X442015Y464018D02*
X437513D01*
Y458816D01*
X442015D01*
Y459988D01*
X447581D01*
X447751Y459819D01*
X448444Y459531D01*
X449194D01*
X449887Y459819D01*
X450418Y460349D01*
X450705Y461042D01*
Y461792D01*
X450418Y462486D01*
X449887Y463016D01*
X449194Y463303D01*
X448444D01*
X447751Y463016D01*
X447581Y462846D01*
X442015D01*
Y464018D01*
D02*
G37*
G36*
X691051Y460421D02*
Y458768D01*
X692705D01*
X692400Y459503D01*
X691787Y460117D01*
X691051Y460421D01*
D02*
G37*
G36*
X690051D02*
X689316Y460117D01*
X688702Y459503D01*
X688398Y458768D01*
X690051D01*
Y460421D01*
D02*
G37*
G36*
X675303D02*
Y458768D01*
X676957D01*
X676652Y459503D01*
X676039Y460117D01*
X675303Y460421D01*
D02*
G37*
G36*
X674303D02*
X673568Y460117D01*
X672954Y459503D01*
X672649Y458768D01*
X674303D01*
Y460421D01*
D02*
G37*
G36*
X692705Y457768D02*
X691051D01*
Y456114D01*
X691787Y456419D01*
X692400Y457032D01*
X692705Y457768D01*
D02*
G37*
G36*
X690051D02*
X688398D01*
X688702Y457032D01*
X689316Y456419D01*
X690051Y456114D01*
Y457768D01*
D02*
G37*
G36*
X676957D02*
X675303D01*
Y456114D01*
X676039Y456419D01*
X676652Y457032D01*
X676957Y457768D01*
D02*
G37*
G36*
X674303D02*
X672649D01*
X672954Y457032D01*
X673568Y456419D01*
X674303Y456114D01*
Y457768D01*
D02*
G37*
G36*
X436921Y457748D02*
X427646D01*
Y452016D01*
X436921D01*
Y453453D01*
X437556D01*
Y452867D01*
X442758D01*
Y457369D01*
X437556D01*
Y456311D01*
X436921D01*
Y457748D01*
D02*
G37*
G36*
X765481Y453950D02*
X765461D01*
Y450500D01*
X768911D01*
Y450520D01*
X768642Y451525D01*
X768121Y452425D01*
X767386Y453161D01*
X766485Y453681D01*
X765481Y453950D01*
D02*
G37*
G36*
X764461D02*
X764441D01*
X763436Y453681D01*
X762535Y453161D01*
X761800Y452425D01*
X761280Y451525D01*
X761011Y450520D01*
Y450500D01*
X764461D01*
Y453950D01*
D02*
G37*
G36*
X551701D02*
X551681D01*
Y450500D01*
X555131D01*
Y450520D01*
X554862Y451525D01*
X554342Y452425D01*
X553607Y453161D01*
X552706Y453681D01*
X551701Y453950D01*
D02*
G37*
G36*
X550681D02*
X550661D01*
X549656Y453681D01*
X548756Y453161D01*
X548020Y452425D01*
X547500Y451525D01*
X547231Y450520D01*
Y450500D01*
X550681D01*
Y453950D01*
D02*
G37*
G36*
X449058Y457369D02*
X443856D01*
Y452964D01*
X437421Y446529D01*
X436921Y446736D01*
Y447748D01*
X427646D01*
Y442016D01*
X436921D01*
Y443453D01*
X437795D01*
X438342Y443562D01*
X438806Y443871D01*
X445474Y450539D01*
X451518D01*
X451688Y450370D01*
X452381Y450083D01*
X453131D01*
X453824Y450370D01*
X454355Y450900D01*
X454642Y451593D01*
Y452344D01*
X454355Y453037D01*
X453848Y453543D01*
X454355Y454050D01*
X454642Y454743D01*
Y455493D01*
X454355Y456186D01*
X453824Y456717D01*
X453131Y457004D01*
X452381D01*
X451688Y456717D01*
X451518Y456547D01*
X449058D01*
Y457369D01*
D02*
G37*
G36*
X529442Y453852D02*
X521739D01*
Y446148D01*
X529442D01*
Y453852D01*
D02*
G37*
G36*
X768911Y449500D02*
X765461D01*
Y446050D01*
X765481D01*
X766485Y446319D01*
X767386Y446839D01*
X768121Y447575D01*
X768642Y448475D01*
X768911Y449480D01*
Y449500D01*
D02*
G37*
G36*
X764461D02*
X761011D01*
Y449480D01*
X761280Y448475D01*
X761800Y447575D01*
X762535Y446839D01*
X763436Y446319D01*
X764441Y446050D01*
X764461D01*
Y449500D01*
D02*
G37*
G36*
X555131D02*
X551681D01*
Y446050D01*
X551701D01*
X552706Y446319D01*
X553607Y446839D01*
X554342Y447575D01*
X554862Y448475D01*
X555131Y449480D01*
Y449500D01*
D02*
G37*
G36*
X550681D02*
X547231D01*
Y449480D01*
X547500Y448475D01*
X548020Y447575D01*
X548756Y446839D01*
X549656Y446319D01*
X550661Y446050D01*
X550681D01*
Y449500D01*
D02*
G37*
G36*
X691051Y444673D02*
Y443020D01*
X692705D01*
X692400Y443755D01*
X691787Y444369D01*
X691051Y444673D01*
D02*
G37*
G36*
X690051D02*
X689316Y444369D01*
X688702Y443755D01*
X688398Y443020D01*
X690051D01*
Y444673D01*
D02*
G37*
G36*
X675303D02*
Y443020D01*
X676957D01*
X676652Y443755D01*
X676039Y444369D01*
X675303Y444673D01*
D02*
G37*
G36*
X674303D02*
X673568Y444369D01*
X672954Y443755D01*
X672649Y443020D01*
X674303D01*
Y444673D01*
D02*
G37*
G36*
X692705Y442020D02*
X691051D01*
Y440366D01*
X691787Y440671D01*
X692400Y441284D01*
X692705Y442020D01*
D02*
G37*
G36*
X690051D02*
X688398D01*
X688702Y441284D01*
X689316Y440671D01*
X690051Y440366D01*
Y442020D01*
D02*
G37*
G36*
X676957D02*
X675303D01*
Y440366D01*
X676039Y440671D01*
X676652Y441284D01*
X676957Y442020D01*
D02*
G37*
G36*
X674303D02*
X672649D01*
X672954Y441284D01*
X673568Y440671D01*
X674303Y440366D01*
Y442020D01*
D02*
G37*
G36*
X493157Y443421D02*
X491883D01*
X490652Y443091D01*
X489549Y442454D01*
X488648Y441554D01*
X488011Y440450D01*
X487681Y439220D01*
Y437946D01*
X488011Y436715D01*
X488648Y435612D01*
X489549Y434711D01*
X490652Y434074D01*
X491883Y433744D01*
X493157D01*
X494387Y434074D01*
X495491Y434711D01*
X496391Y435612D01*
X497028Y436715D01*
X497358Y437946D01*
Y439220D01*
X497028Y440450D01*
X496391Y441554D01*
X495491Y442454D01*
X494387Y443091D01*
X493157Y443421D01*
D02*
G37*
G36*
Y463106D02*
X491883D01*
X490652Y462777D01*
X489549Y462140D01*
X488648Y461239D01*
X488011Y460135D01*
X487681Y458905D01*
Y457631D01*
X488011Y456400D01*
X488648Y455297D01*
X489549Y454396D01*
X490652Y453759D01*
X491091Y453641D01*
Y449606D01*
X491199Y449059D01*
X491509Y448596D01*
X498177Y441928D01*
Y431301D01*
X496258Y429382D01*
X434844D01*
X433712Y430513D01*
Y432016D01*
X436921D01*
Y437748D01*
X427646D01*
Y432016D01*
X430854D01*
Y429921D01*
X430963Y429374D01*
X431273Y428911D01*
X433242Y426942D01*
X433242Y426942D01*
X433705Y426632D01*
X434252Y426524D01*
X496850D01*
X497397Y426632D01*
X497861Y426942D01*
X500617Y429698D01*
X500927Y430162D01*
X501035Y430709D01*
Y442520D01*
X500927Y443067D01*
X500617Y443530D01*
X500617Y443530D01*
X493949Y450198D01*
Y453641D01*
X494387Y453759D01*
X495491Y454396D01*
X496391Y455297D01*
X497028Y456400D01*
X497358Y457631D01*
Y458905D01*
X497028Y460135D01*
X496391Y461239D01*
X495491Y462140D01*
X494387Y462777D01*
X493157Y463106D01*
D02*
G37*
G36*
X765468Y436135D02*
X764454D01*
X763474Y435873D01*
X762596Y435365D01*
X761879Y434648D01*
X761372Y433770D01*
X761109Y432791D01*
Y431776D01*
X761372Y430797D01*
X761879Y429918D01*
X762596Y429201D01*
X763474Y428694D01*
X764454Y428432D01*
X765468D01*
X766447Y428694D01*
X767326Y429201D01*
X768043Y429918D01*
X768550Y430797D01*
X768812Y431776D01*
Y432791D01*
X768550Y433770D01*
X768043Y434648D01*
X767326Y435365D01*
X766447Y435873D01*
X765468Y436135D01*
D02*
G37*
G36*
X739877D02*
X738863D01*
X737883Y435873D01*
X737005Y435365D01*
X736288Y434648D01*
X735781Y433770D01*
X735519Y432791D01*
Y431776D01*
X735781Y430797D01*
X736288Y429918D01*
X737005Y429201D01*
X737883Y428694D01*
X738863Y428432D01*
X739877D01*
X740857Y428694D01*
X741735Y429201D01*
X742452Y429918D01*
X742959Y430797D01*
X743222Y431776D01*
Y432791D01*
X742959Y433770D01*
X742452Y434648D01*
X741735Y435365D01*
X740857Y435873D01*
X739877Y436135D01*
D02*
G37*
G36*
X551688D02*
X550674D01*
X549694Y435873D01*
X548816Y435365D01*
X548099Y434648D01*
X547592Y433770D01*
X547330Y432791D01*
Y431776D01*
X547592Y430797D01*
X548099Y429918D01*
X548816Y429201D01*
X549694Y428694D01*
X550674Y428432D01*
X551688D01*
X552668Y428694D01*
X553546Y429201D01*
X554263Y429918D01*
X554770Y430797D01*
X555033Y431776D01*
Y432791D01*
X554770Y433770D01*
X554263Y434648D01*
X553546Y435365D01*
X552668Y435873D01*
X551688Y436135D01*
D02*
G37*
G36*
X526098D02*
X525083D01*
X524104Y435873D01*
X523226Y435365D01*
X522508Y434648D01*
X522002Y433770D01*
X521739Y432791D01*
Y431776D01*
X522002Y430797D01*
X522508Y429918D01*
X523226Y429201D01*
X524104Y428694D01*
X525083Y428432D01*
X526098D01*
X527077Y428694D01*
X527955Y429201D01*
X528673Y429918D01*
X529180Y430797D01*
X529442Y431776D01*
Y432791D01*
X529180Y433770D01*
X528673Y434648D01*
X527955Y435365D01*
X527077Y435873D01*
X526098Y436135D01*
D02*
G37*
G36*
X777665Y422626D02*
Y420972D01*
X779319D01*
X779014Y421708D01*
X778401Y422322D01*
X777665Y422626D01*
D02*
G37*
G36*
X776665D02*
X775930Y422322D01*
X775316Y421708D01*
X775012Y420972D01*
X776665D01*
Y422626D01*
D02*
G37*
G36*
X425697Y421839D02*
Y420185D01*
X427351D01*
X427046Y420921D01*
X426432Y421534D01*
X425697Y421839D01*
D02*
G37*
G36*
X424697D02*
X423961Y421534D01*
X423348Y420921D01*
X423043Y420185D01*
X424697D01*
Y421839D01*
D02*
G37*
G36*
X779319Y419972D02*
X777665D01*
Y418319D01*
X778401Y418623D01*
X779014Y419237D01*
X779319Y419972D01*
D02*
G37*
G36*
X776665D02*
X775012D01*
X775316Y419237D01*
X775930Y418623D01*
X776665Y418319D01*
Y419972D01*
D02*
G37*
G36*
X427351Y419185D02*
X425697D01*
Y417531D01*
X426432Y417836D01*
X427046Y418449D01*
X427351Y419185D01*
D02*
G37*
G36*
X424697D02*
X423043D01*
X423348Y418449D01*
X423961Y417836D01*
X424697Y417531D01*
Y419185D01*
D02*
G37*
G36*
X642533Y419973D02*
X639083D01*
Y416523D01*
X639103D01*
X640107Y416792D01*
X641008Y417312D01*
X641744Y418047D01*
X642264Y418948D01*
X642533Y419952D01*
Y419973D01*
D02*
G37*
G36*
X638083D02*
X634633D01*
Y419952D01*
X634902Y418948D01*
X635422Y418047D01*
X636157Y417312D01*
X637058Y416792D01*
X638063Y416523D01*
X638083D01*
Y419973D01*
D02*
G37*
G36*
X711263Y415243D02*
X706061D01*
Y410741D01*
X711263D01*
Y415243D01*
D02*
G37*
G36*
X433571Y406878D02*
Y405224D01*
X435225D01*
X434920Y405960D01*
X434306Y406573D01*
X433571Y406878D01*
D02*
G37*
G36*
X432571D02*
X431835Y406573D01*
X431222Y405960D01*
X430917Y405224D01*
X432571D01*
Y406878D01*
D02*
G37*
G36*
X569398Y405697D02*
Y404043D01*
X571051D01*
X570747Y404779D01*
X570133Y405392D01*
X569398Y405697D01*
D02*
G37*
G36*
X568398D02*
X567662Y405392D01*
X567049Y404779D01*
X566744Y404043D01*
X568398D01*
Y405697D01*
D02*
G37*
G36*
X557587D02*
Y404043D01*
X559240D01*
X558936Y404779D01*
X558322Y405392D01*
X557587Y405697D01*
D02*
G37*
G36*
X556587D02*
X555851Y405392D01*
X555238Y404779D01*
X554933Y404043D01*
X556587D01*
Y405697D01*
D02*
G37*
G36*
X541839D02*
Y404043D01*
X543492D01*
X543188Y404779D01*
X542574Y405392D01*
X541839Y405697D01*
D02*
G37*
G36*
X540839D02*
X540103Y405392D01*
X539490Y404779D01*
X539185Y404043D01*
X540839D01*
Y405697D01*
D02*
G37*
G36*
X522154D02*
Y404043D01*
X523807D01*
X523503Y404779D01*
X522889Y405392D01*
X522154Y405697D01*
D02*
G37*
G36*
X521153D02*
X520418Y405392D01*
X519804Y404779D01*
X519500Y404043D01*
X521153D01*
Y405697D01*
D02*
G37*
G36*
X506405D02*
Y404043D01*
X508059D01*
X507755Y404779D01*
X507141Y405392D01*
X506405Y405697D01*
D02*
G37*
G36*
X505406D02*
X504670Y405392D01*
X504057Y404779D01*
X503752Y404043D01*
X505406D01*
Y405697D01*
D02*
G37*
G36*
X458374D02*
Y404043D01*
X460028D01*
X459723Y404779D01*
X459109Y405392D01*
X458374Y405697D01*
D02*
G37*
G36*
X457374D02*
X456638Y405392D01*
X456025Y404779D01*
X455720Y404043D01*
X457374D01*
Y405697D01*
D02*
G37*
G36*
X435225Y404224D02*
X433571D01*
Y402571D01*
X434306Y402875D01*
X434920Y403489D01*
X435225Y404224D01*
D02*
G37*
G36*
X432571D02*
X430917D01*
X431222Y403489D01*
X431835Y402875D01*
X432571Y402571D01*
Y404224D01*
D02*
G37*
G36*
X571051Y403043D02*
X569398D01*
Y401390D01*
X570133Y401694D01*
X570747Y402308D01*
X571051Y403043D01*
D02*
G37*
G36*
X568398D02*
X566744D01*
X567049Y402308D01*
X567662Y401694D01*
X568398Y401390D01*
Y403043D01*
D02*
G37*
G36*
X559240D02*
X557587D01*
Y401390D01*
X558322Y401694D01*
X558936Y402308D01*
X559240Y403043D01*
D02*
G37*
G36*
X556587D02*
X554933D01*
X555238Y402308D01*
X555851Y401694D01*
X556587Y401390D01*
Y403043D01*
D02*
G37*
G36*
X543492D02*
X541839D01*
Y401390D01*
X542574Y401694D01*
X543188Y402308D01*
X543492Y403043D01*
D02*
G37*
G36*
X540839D02*
X539185D01*
X539490Y402308D01*
X540103Y401694D01*
X540839Y401390D01*
Y403043D01*
D02*
G37*
G36*
X523807D02*
X522154D01*
Y401390D01*
X522889Y401694D01*
X523503Y402308D01*
X523807Y403043D01*
D02*
G37*
G36*
X521153D02*
X519500D01*
X519804Y402308D01*
X520418Y401694D01*
X521153Y401390D01*
Y403043D01*
D02*
G37*
G36*
X508059D02*
X506405D01*
Y401390D01*
X507141Y401694D01*
X507755Y402308D01*
X508059Y403043D01*
D02*
G37*
G36*
X505406D02*
X503752D01*
X504057Y402308D01*
X504670Y401694D01*
X505406Y401390D01*
Y403043D01*
D02*
G37*
G36*
X460028D02*
X458374D01*
Y401390D01*
X459109Y401694D01*
X459723Y402308D01*
X460028Y403043D01*
D02*
G37*
G36*
X457374D02*
X455720D01*
X456025Y402308D01*
X456638Y401694D01*
X457374Y401390D01*
Y403043D01*
D02*
G37*
G36*
X748138Y400973D02*
Y399319D01*
X749791D01*
X749487Y400054D01*
X748873Y400668D01*
X748138Y400973D01*
D02*
G37*
G36*
X747138D02*
X746402Y400668D01*
X745789Y400054D01*
X745484Y399319D01*
X747138D01*
Y400973D01*
D02*
G37*
G36*
X749791Y398319D02*
X748138D01*
Y396665D01*
X748873Y396970D01*
X749487Y397583D01*
X749791Y398319D01*
D02*
G37*
G36*
X747138D02*
X745484D01*
X745789Y397583D01*
X746402Y396970D01*
X747138Y396665D01*
Y398319D01*
D02*
G37*
%LPD*%
G36*
X773602Y598636D02*
X773517Y598606D01*
X773442Y598555D01*
X773377Y598484D01*
X773322Y598393D01*
X773277Y598282D01*
X773242Y598150D01*
X773217Y597998D01*
X773202Y597826D01*
X773197Y597634D01*
X772197D01*
X772192Y597826D01*
X772177Y597998D01*
X772152Y598150D01*
X772117Y598282D01*
X772072Y598393D01*
X772017Y598484D01*
X771952Y598555D01*
X771877Y598606D01*
X771792Y598636D01*
X771697Y598646D01*
X773697D01*
X773602Y598636D01*
D02*
G37*
G36*
X783858Y602756D02*
X783858Y595276D01*
X783071Y594488D01*
X774126D01*
Y598090D01*
X774202Y598141D01*
X774223Y598173D01*
X774253Y598197D01*
X774300Y598288D01*
X774357Y598373D01*
X774365Y598410D01*
X774382Y598444D01*
X774391Y598546D01*
X774411Y598646D01*
X774404Y598684D01*
X774407Y598722D01*
X774397Y598754D01*
X774633Y598989D01*
X774942Y599453D01*
X775051Y600000D01*
X774942Y600547D01*
X774633Y601011D01*
X774169Y601320D01*
X773622Y601429D01*
X773075Y601320D01*
X772612Y601011D01*
X771686Y600085D01*
X771377Y599622D01*
X771298Y599228D01*
X771248Y599202D01*
X771223Y599173D01*
X771192Y599151D01*
X771135Y599066D01*
X771069Y598988D01*
X771058Y598951D01*
X771037Y598919D01*
X771017Y598819D01*
X770986Y598722D01*
X770990Y598684D01*
X770982Y598646D01*
X771002Y598546D01*
X771011Y598444D01*
X771029Y598410D01*
X771037Y598373D01*
X771094Y598288D01*
X771141Y598197D01*
X771170Y598173D01*
X771192Y598141D01*
X771268Y598090D01*
Y594488D01*
X761811D01*
X760236Y596063D01*
Y600394D01*
X762992Y603150D01*
X783465D01*
X783858Y602756D01*
D02*
G37*
G36*
X773202Y593711D02*
X773216Y593541D01*
X773239Y593391D01*
X773272Y593261D01*
X773315Y593151D01*
X773367Y593061D01*
X773428Y592991D01*
X773499Y592941D01*
X773579Y592911D01*
X773669Y592901D01*
X771725D01*
X771814Y592911D01*
X771895Y592941D01*
X771965Y592991D01*
X772027Y593061D01*
X772079Y593151D01*
X772121Y593261D01*
X772154Y593391D01*
X772178Y593541D01*
X772192Y593711D01*
X772197Y593901D01*
X773197D01*
X773202Y593711D01*
D02*
G37*
G36*
X758628Y590810D02*
X758705Y590778D01*
X758810Y590750D01*
X758941Y590726D01*
X759099Y590705D01*
X759497Y590674D01*
X760297Y590658D01*
Y589657D01*
X760003Y589656D01*
X758941Y589590D01*
X758810Y589565D01*
X758705Y589537D01*
X758628Y589504D01*
X758577Y589468D01*
Y590846D01*
X758628Y590810D01*
D02*
G37*
G36*
X766737Y589157D02*
X766726Y589253D01*
X766696Y589337D01*
X766645Y589412D01*
X766575Y589477D01*
X766484Y589533D01*
X766372Y589577D01*
X766241Y589612D01*
X766089Y589638D01*
X765917Y589652D01*
X765725Y589657D01*
Y590658D01*
X765917Y590662D01*
X766089Y590677D01*
X766241Y590702D01*
X766372Y590737D01*
X766484Y590782D01*
X766575Y590837D01*
X766645Y590903D01*
X766696Y590977D01*
X766726Y591062D01*
X766737Y591157D01*
Y589157D01*
D02*
G37*
G36*
X773346Y587021D02*
X773261Y586990D01*
X773186Y586939D01*
X773121Y586868D01*
X773066Y586777D01*
X773021Y586666D01*
X772986Y586535D01*
X772961Y586383D01*
X772946Y586211D01*
X772941Y586020D01*
X771941D01*
X771939Y586210D01*
X771906Y586660D01*
X771887Y586770D01*
X771863Y586860D01*
X771835Y586930D01*
X771803Y586980D01*
X771766Y587010D01*
X771725Y587020D01*
X773441Y587032D01*
X773346Y587021D01*
D02*
G37*
G36*
X759809Y583724D02*
X759886Y583692D01*
X759991Y583664D01*
X760122Y583639D01*
X760281Y583618D01*
X760678Y583588D01*
X761478Y583571D01*
Y582571D01*
X761184Y582569D01*
X760122Y582503D01*
X759991Y582478D01*
X759886Y582450D01*
X759809Y582418D01*
X759758Y582382D01*
Y583760D01*
X759809Y583724D01*
D02*
G37*
G36*
X744179Y574902D02*
X744129Y574937D01*
X744051Y574970D01*
X743946Y574998D01*
X743815Y575023D01*
X743656Y575043D01*
X743259Y575073D01*
X742459Y575091D01*
Y576090D01*
X742753Y576092D01*
X743815Y576159D01*
X743946Y576183D01*
X744051Y576212D01*
X744129Y576244D01*
X744179Y576279D01*
Y574902D01*
D02*
G37*
G36*
X435472Y467363D02*
X435414Y467299D01*
X435376Y467241D01*
X435359Y467190D01*
X435361Y467146D01*
X435384Y467108D01*
X435427Y467078D01*
X435490Y467054D01*
X435573Y467037D01*
X435677Y467027D01*
X435800Y467023D01*
X433073D01*
X433203Y467030D01*
X433334Y467052D01*
X433467Y467088D01*
X433601Y467138D01*
X433736Y467203D01*
X433874Y467282D01*
X434012Y467376D01*
X434152Y467484D01*
X434294Y467606D01*
X434437Y467742D01*
X435472Y467363D01*
D02*
G37*
G36*
X438238Y466717D02*
X438228Y466812D01*
X438197Y466897D01*
X438147Y466972D01*
X438076Y467037D01*
X437985Y467092D01*
X437874Y467137D01*
X437742Y467172D01*
X437590Y467197D01*
X437418Y467212D01*
X437226Y467217D01*
Y468217D01*
X437418Y468222D01*
X437590Y468237D01*
X437742Y468262D01*
X437874Y468297D01*
X437985Y468342D01*
X438076Y468397D01*
X438147Y468462D01*
X438197Y468537D01*
X438228Y468622D01*
X438238Y468717D01*
Y466717D01*
D02*
G37*
G36*
X448116Y460728D02*
X448066Y460764D01*
X447988Y460796D01*
X447884Y460824D01*
X447752Y460849D01*
X447594Y460870D01*
X447196Y460900D01*
X446396Y460917D01*
X446396Y461917D01*
X446690Y461919D01*
X447752Y461985D01*
X447883Y462010D01*
X447988Y462038D01*
X448065Y462070D01*
X448116Y462106D01*
X448116Y460728D01*
D02*
G37*
G36*
X441300Y462322D02*
X441330Y462237D01*
X441381Y462162D01*
X441452Y462097D01*
X441543Y462042D01*
X441654Y461997D01*
X441786Y461962D01*
X441937Y461937D01*
X442109Y461922D01*
X442302Y461917D01*
Y460917D01*
X442109Y460912D01*
X441937Y460897D01*
X441786Y460872D01*
X441654Y460837D01*
X441543Y460792D01*
X441452Y460737D01*
X441381Y460672D01*
X441330Y460597D01*
X441300Y460512D01*
X441290Y460417D01*
Y462417D01*
X441300Y462322D01*
D02*
G37*
G36*
X438269Y453882D02*
X438259Y453977D01*
X438229Y454062D01*
X438179Y454137D01*
X438109Y454202D01*
X438019Y454257D01*
X437909Y454302D01*
X437779Y454337D01*
X437629Y454362D01*
X437459Y454377D01*
X437269Y454382D01*
Y455382D01*
X437459Y455387D01*
X437629Y455402D01*
X437779Y455427D01*
X437909Y455462D01*
X438019Y455507D01*
X438109Y455562D01*
X438179Y455627D01*
X438229Y455702D01*
X438259Y455787D01*
X438269Y455882D01*
Y453882D01*
D02*
G37*
G36*
X436207Y455787D02*
X436237Y455702D01*
X436288Y455627D01*
X436358Y455562D01*
X436449Y455507D01*
X436561Y455462D01*
X436692Y455427D01*
X436844Y455402D01*
X437016Y455387D01*
X437209Y455382D01*
Y454382D01*
X437016Y454377D01*
X436844Y454362D01*
X436692Y454337D01*
X436561Y454302D01*
X436449Y454257D01*
X436358Y454202D01*
X436288Y454137D01*
X436237Y454062D01*
X436207Y453977D01*
X436197Y453882D01*
Y455882D01*
X436207Y455787D01*
D02*
G37*
G36*
X452053Y454429D02*
X452002Y454465D01*
X451925Y454497D01*
X451820Y454526D01*
X451689Y454550D01*
X451531Y454571D01*
X451133Y454601D01*
X450333Y454618D01*
Y455618D01*
X450627Y455620D01*
X451689Y455686D01*
X451820Y455711D01*
X451925Y455739D01*
X452002Y455771D01*
X452053Y455807D01*
Y454429D01*
D02*
G37*
G36*
X448343Y456023D02*
X448374Y455938D01*
X448424Y455863D01*
X448495Y455798D01*
X448586Y455743D01*
X448697Y455698D01*
X448829Y455663D01*
X448981Y455638D01*
X449153Y455623D01*
X449345Y455618D01*
Y454618D01*
X449153Y454613D01*
X448981Y454598D01*
X448829Y454573D01*
X448697Y454538D01*
X448586Y454493D01*
X448495Y454438D01*
X448424Y454373D01*
X448374Y454298D01*
X448343Y454213D01*
X448333Y454118D01*
Y456118D01*
X448343Y456023D01*
D02*
G37*
G36*
X452053Y451279D02*
X452002Y451315D01*
X451925Y451348D01*
X451820Y451376D01*
X451689Y451401D01*
X451531Y451421D01*
X451133Y451451D01*
X450333Y451469D01*
Y452468D01*
X450627Y452470D01*
X451689Y452536D01*
X451820Y452561D01*
X451925Y452589D01*
X452002Y452622D01*
X452053Y452658D01*
Y451279D01*
D02*
G37*
G36*
X436207Y445787D02*
X436237Y445702D01*
X436288Y445627D01*
X436358Y445562D01*
X436449Y445507D01*
X436561Y445462D01*
X436692Y445427D01*
X436844Y445402D01*
X437016Y445387D01*
X437209Y445382D01*
Y444382D01*
X437016Y444377D01*
X436844Y444362D01*
X436692Y444337D01*
X436561Y444302D01*
X436449Y444257D01*
X436358Y444202D01*
X436288Y444137D01*
X436237Y444062D01*
X436207Y443977D01*
X436197Y443882D01*
Y445882D01*
X436207Y445787D01*
D02*
G37*
G36*
X433188Y432730D02*
X433104Y432700D01*
X433029Y432650D01*
X432964Y432579D01*
X432908Y432487D01*
X432864Y432376D01*
X432829Y432245D01*
X432803Y432093D01*
X432789Y431921D01*
X432784Y431729D01*
X431783D01*
X431778Y431921D01*
X431764Y432093D01*
X431739Y432245D01*
X431704Y432376D01*
X431659Y432487D01*
X431603Y432579D01*
X431538Y432650D01*
X431463Y432700D01*
X431379Y432730D01*
X431284Y432740D01*
X433284D01*
X433188Y432730D01*
D02*
G37*
%LPC*%
G36*
X618610Y621056D02*
Y616642D01*
X623024D01*
X622920Y617431D01*
X622423Y618632D01*
X621631Y619663D01*
X620600Y620454D01*
X619399Y620952D01*
X618610Y621056D01*
D02*
G37*
G36*
X661524Y621056D02*
Y616642D01*
X665937D01*
X665834Y617431D01*
X665336Y618632D01*
X664545Y619663D01*
X663513Y620454D01*
X662312Y620952D01*
X661524Y621056D01*
D02*
G37*
G36*
X660524Y621056D02*
X659735Y620952D01*
X658534Y620454D01*
X657503Y619663D01*
X656711Y618632D01*
X656214Y617431D01*
X656110Y616642D01*
X660524D01*
Y621056D01*
D02*
G37*
G36*
X617610D02*
X616821Y620952D01*
X615620Y620454D01*
X614589Y619663D01*
X613798Y618632D01*
X613300Y617431D01*
X613197Y616642D01*
X617610D01*
Y621056D01*
D02*
G37*
G36*
X660524Y615642D02*
X656110D01*
X656214Y614853D01*
X656711Y613652D01*
X657503Y612621D01*
X658534Y611829D01*
X659735Y611332D01*
X660524Y611228D01*
Y615642D01*
D02*
G37*
G36*
X623024D02*
X618610D01*
Y611228D01*
X619399Y611332D01*
X620600Y611829D01*
X621631Y612621D01*
X622423Y613652D01*
X622920Y614853D01*
X623024Y615642D01*
D02*
G37*
G36*
X617610D02*
X613197D01*
X613300Y614853D01*
X613798Y613652D01*
X614589Y612621D01*
X615620Y611829D01*
X616821Y611332D01*
X617610Y611228D01*
Y615642D01*
D02*
G37*
G36*
X665937D02*
X661524D01*
Y611228D01*
X662312Y611332D01*
X663513Y611829D01*
X664545Y612621D01*
X665336Y613652D01*
X665834Y614853D01*
X665937Y615642D01*
D02*
G37*
%LPD*%
D15*
X439764Y461417D02*
D03*
Y467717D02*
D03*
X762205Y567322D02*
D03*
Y573622D02*
D03*
X773228Y555118D02*
D03*
Y561418D02*
D03*
X779528Y555118D02*
D03*
Y561418D02*
D03*
X732283Y607875D02*
D03*
Y601575D02*
D03*
D17*
X746654Y624409D02*
D03*
X739173D02*
D03*
D18*
X446457Y455118D02*
D03*
X440157D02*
D03*
X753149Y625197D02*
D03*
X759449D02*
D03*
X702362Y412992D02*
D03*
X708662D02*
D03*
D21*
X773622Y600000D02*
D03*
Y607480D02*
D03*
X780709Y599803D02*
D03*
Y607283D02*
D03*
D38*
X580921Y557874D02*
D03*
X525591Y450000D02*
D03*
X612992Y420472D02*
D03*
X739370Y450000D02*
D03*
D41*
X759055Y583071D02*
X771855D01*
X704724Y575591D02*
X744882D01*
X702756Y573622D02*
X704724Y575591D01*
X702756Y526378D02*
Y573622D01*
X752362Y572047D02*
X757087Y567322D01*
X762205D01*
X749606Y581890D02*
X752362Y579134D01*
Y572047D02*
Y579134D01*
X699606Y581890D02*
X749606D01*
X689370Y592126D02*
X699606Y581890D01*
X689370Y592126D02*
Y603340D01*
X686824Y605886D02*
X689370Y603340D01*
X711024Y590158D02*
Y617756D01*
X714153Y620886D01*
X722624D01*
X771855Y583071D02*
X772441Y583657D01*
Y589705D01*
X772697Y589961D01*
X687402Y511024D02*
X702756Y526378D01*
X687402Y501575D02*
Y511024D01*
X767500Y590158D02*
X767697Y589961D01*
X757874Y590158D02*
X767500D01*
X739370Y450000D02*
Y490989D01*
X722835Y507524D02*
X739370Y490989D01*
X722835Y507524D02*
Y546063D01*
X711949Y555346D02*
X713551D01*
X722835Y546063D01*
X720169Y408580D02*
X720866Y409277D01*
X705905Y427356D02*
X720866Y412395D01*
Y409277D02*
Y412395D01*
X694807Y408580D02*
X720169D01*
X644488Y428537D02*
X647201D01*
X648382Y427356D01*
X690945Y403543D02*
Y404718D01*
X694807Y408580D01*
X649010Y429134D02*
X707874D01*
X641339Y436805D02*
Y451575D01*
X638583Y434443D02*
X644488Y428537D01*
X638583Y434443D02*
Y451968D01*
X648382Y427356D02*
X705905D01*
X641339Y436805D02*
X649010Y429134D01*
X739370Y450000D02*
X739370Y450000D01*
X739370Y442520D02*
Y450000D01*
X732087Y435236D02*
X739370Y442520D01*
X732087Y403346D02*
Y435236D01*
X724409Y395669D02*
X732087Y403346D01*
X691929Y395669D02*
X724409D01*
X696850Y398224D02*
X697436Y397638D01*
X696850Y398224D02*
Y403543D01*
X722249Y397638D02*
X722835Y398224D01*
X697436Y397638D02*
X722249D01*
X685039Y402559D02*
X691929Y395669D01*
X722835Y398224D02*
Y414173D01*
X685039Y402559D02*
Y403543D01*
X707874Y429134D02*
X722835Y414173D01*
X693975Y424923D02*
X702362Y416536D01*
X636495Y424923D02*
X693975D01*
X618877Y397658D02*
X681517D01*
X683997Y400139D02*
Y400509D01*
X681517Y397658D02*
X683997Y400139D01*
X617717Y398819D02*
X618877Y397658D01*
X612992Y420472D02*
X617131D01*
X617717Y419887D01*
Y398819D02*
Y419887D01*
X496850Y427953D02*
X499606Y430709D01*
X432283Y429921D02*
X434252Y427953D01*
X496850D01*
X492520Y449606D02*
Y458268D01*
X499606Y430709D02*
Y442520D01*
X492520Y449606D02*
X499606Y442520D01*
X432283Y429921D02*
Y434882D01*
X444882Y451968D02*
X452756D01*
X437795Y444882D02*
X444882Y451968D01*
X432283Y444882D02*
X437795D01*
X702362Y412992D02*
Y416536D01*
X631890Y429528D02*
Y454331D01*
Y429528D02*
X636495Y424923D01*
X446457Y455118D02*
X452756D01*
X439764Y461417D02*
X448818D01*
X448819Y461417D01*
X432283Y464882D02*
X435118Y467717D01*
X439764D01*
X439921Y454882D02*
X440157Y455118D01*
X432283Y454882D02*
X439921D01*
X766574Y567322D02*
X766643Y567253D01*
X767697Y568307D01*
X762205Y567322D02*
X766574D01*
X786004Y590350D02*
Y606693D01*
X785418Y589764D02*
X786004Y590350D01*
X782697Y589961D02*
X782894Y589764D01*
X785418D01*
X780709Y607283D02*
X785413D01*
X786004Y606693D01*
X740551Y607480D02*
X765748D01*
X777697Y589961D02*
X782697D01*
X780512Y607480D02*
X780709Y607283D01*
X773622Y607480D02*
X780512D01*
X765748D02*
X773622D01*
X769685Y625197D02*
X771850Y623032D01*
Y610729D02*
Y623032D01*
Y610729D02*
X773622Y608957D01*
Y607480D02*
Y608957D01*
X759449Y625197D02*
X769685D01*
X757874Y628524D02*
X759449Y626948D01*
Y625197D02*
Y626948D01*
X746654Y624409D02*
Y627938D01*
X747239Y628524D01*
X757874D01*
X773228Y555118D02*
X779528D01*
X772697Y561949D02*
X773228Y561418D01*
X772697Y561949D02*
Y568307D01*
X777697Y563248D02*
X779528Y561418D01*
X777697Y563248D02*
Y568307D01*
X781889Y573622D02*
X782697Y572815D01*
Y568307D02*
Y572815D01*
X762205Y573622D02*
X781889D01*
X772697Y599075D02*
X773622Y600000D01*
X772697Y589961D02*
Y599075D01*
X732283Y607875D02*
X732677Y608268D01*
Y613583D01*
X730374Y615886D02*
X732677Y613583D01*
X722624Y615886D02*
X730374D01*
D42*
X764961Y488819D02*
D03*
Y508819D02*
D03*
X417323Y598740D02*
D03*
Y578740D02*
D03*
X779528Y401575D02*
D03*
Y622047D02*
D03*
X401575D02*
D03*
Y401575D02*
D03*
D43*
X714567Y403543D02*
D03*
X708661D02*
D03*
X702756D02*
D03*
X696850D02*
D03*
X690945D02*
D03*
X685039D02*
D03*
D44*
X711949Y555346D02*
D03*
Y535661D02*
D03*
X492520Y458268D02*
D03*
Y438583D02*
D03*
X618110Y596457D02*
D03*
Y616142D02*
D03*
X661024Y596457D02*
D03*
Y616142D02*
D03*
X522441Y582677D02*
D03*
Y543307D02*
D03*
X443701Y602362D02*
D03*
Y523622D02*
D03*
D45*
X580921Y540158D02*
D03*
X606512D02*
D03*
Y557874D02*
D03*
X525591Y432283D02*
D03*
X551181D02*
D03*
Y450000D02*
D03*
X638583Y420472D02*
D03*
Y402756D02*
D03*
X612992D02*
D03*
X739370Y432283D02*
D03*
X764961D02*
D03*
Y450000D02*
D03*
D46*
X687402Y491457D02*
D03*
X677165D02*
D03*
Y501575D02*
D03*
X687402D02*
D03*
D47*
X740945Y568110D02*
D03*
X572441Y578740D02*
D03*
X623622Y577559D02*
D03*
X672835D02*
D03*
X425197Y419685D02*
D03*
X457874Y403543D02*
D03*
X433071Y404724D02*
D03*
X662598Y540945D02*
D03*
Y554724D02*
D03*
X719291Y487008D02*
D03*
X747638Y398819D02*
D03*
X777165Y420472D02*
D03*
X754331Y463779D02*
D03*
X739764Y510236D02*
D03*
X709055Y499606D02*
D03*
X568898Y403543D02*
D03*
X557087D02*
D03*
X541339D02*
D03*
X521654D02*
D03*
X505905D02*
D03*
X557480Y466929D02*
D03*
X545669D02*
D03*
X537795D02*
D03*
X674803Y442520D02*
D03*
X690551D02*
D03*
Y458268D02*
D03*
X674803D02*
D03*
X571654Y551968D02*
D03*
Y536221D02*
D03*
X575591Y500787D02*
D03*
Y520472D02*
D03*
X642126Y465354D02*
D03*
X650000Y464961D02*
D03*
D48*
X759055Y583071D02*
D03*
X744882Y575591D02*
D03*
X711024Y590158D02*
D03*
X757874D02*
D03*
X641339Y451575D02*
D03*
X638583Y451968D02*
D03*
X452756D02*
D03*
X631890Y454331D02*
D03*
X452756Y455118D02*
D03*
X448819Y461417D02*
D03*
D49*
X432283Y474882D02*
D03*
Y464882D02*
D03*
Y454882D02*
D03*
Y444882D02*
D03*
Y434882D02*
D03*
D50*
X767697Y568307D02*
D03*
X772697D02*
D03*
X777697D02*
D03*
X782697D02*
D03*
Y589961D02*
D03*
X777697D02*
D03*
X772697D02*
D03*
X767697D02*
D03*
D51*
X747759Y538134D02*
D03*
D52*
X780709Y529134D02*
D03*
Y547134D02*
D03*
D53*
X722624Y620886D02*
D03*
Y615886D02*
D03*
Y610886D02*
D03*
Y605886D02*
D03*
X686824D02*
D03*
Y610886D02*
D03*
Y615886D02*
D03*
Y620886D02*
D03*
D54*
X740551Y607480D02*
D03*
D55*
X765748Y598425D02*
D03*
Y607480D02*
D03*
Y616535D02*
D03*
D56*
X732677Y625000D02*
D03*
Y613583D02*
D03*
D57*
X549606Y599980D02*
D03*
Y620492D02*
D03*
X584252Y599980D02*
D03*
Y620492D02*
D03*
D58*
X592520Y609449D02*
D03*
Y623622D02*
D03*
D59*
X754095Y488819D02*
X764961D01*
X747759Y495155D02*
X754095Y488819D01*
X747759Y495155D02*
Y538134D01*
X764961Y508819D02*
X765512Y508268D01*
X776096D01*
X780709Y512880D01*
Y529134D01*
D60*
X584252Y620492D02*
X589390D01*
X592520Y623622D01*
D61*
X522441Y543307D02*
X549606Y570472D01*
Y599980D01*
X522441Y611811D02*
X531122Y620492D01*
X549606D01*
X522441Y582677D02*
Y611811D01*
X417323Y578740D02*
X443701Y552362D01*
Y523622D02*
Y552362D01*
X417323Y598740D02*
X440079D01*
X443701Y602362D01*
M02*
