G04*
G04 #@! TF.GenerationSoftware,Altium Limited,Altium Designer,23.5.1 (21)*
G04*
G04 Layer_Color=128*
%FSLAX25Y25*%
%MOIN*%
G70*
G04*
G04 #@! TF.SameCoordinates,AFD14176-74B1-4AA8-BEBF-F55300C3C1FD*
G04*
G04*
G04 #@! TF.FilePolarity,Positive*
G04*
G01*
G75*
%ADD70C,0.00500*%
D70*
X761516Y488819D02*
X768405D01*
X764961Y485374D02*
Y492264D01*
X761516Y508819D02*
X768405D01*
X764961Y505374D02*
Y512264D01*
X712854Y403543D02*
X716280D01*
X714567Y401831D02*
Y405256D01*
X706949Y403543D02*
X710374D01*
X708661Y401831D02*
Y405256D01*
X701043Y403543D02*
X704468D01*
X702756Y401831D02*
Y405256D01*
X695138Y403543D02*
X698563D01*
X696850Y401831D02*
Y405256D01*
X689232Y403543D02*
X692658D01*
X690945Y401831D02*
Y405256D01*
X683327Y403543D02*
X686752D01*
X685039Y401831D02*
Y405256D01*
X710374Y555346D02*
X713524D01*
X711949Y553772D02*
Y556921D01*
X710374Y535661D02*
X713524D01*
X711949Y534087D02*
Y537236D01*
X578971Y557874D02*
X582871D01*
X580921Y555924D02*
Y559824D01*
X578971Y540158D02*
X582871D01*
X580921Y538207D02*
Y542107D01*
X604562Y540158D02*
X608462D01*
X606512Y538207D02*
Y542107D01*
X604562Y557874D02*
X608462D01*
X606512Y555924D02*
Y559824D01*
X686024Y491457D02*
X688779D01*
X687402Y490079D02*
Y492835D01*
X675787Y491457D02*
X678543D01*
X677165Y490079D02*
Y492835D01*
X675787Y501575D02*
X678543D01*
X677165Y500197D02*
Y502953D01*
X686024Y501575D02*
X688779D01*
X687402Y500197D02*
Y502953D01*
X523641Y450000D02*
X527541D01*
X525591Y448050D02*
Y451950D01*
X523641Y432283D02*
X527541D01*
X525591Y430334D02*
Y434234D01*
X549231Y432283D02*
X553131D01*
X551181Y430334D02*
Y434234D01*
X549231Y450000D02*
X553131D01*
X551181Y448050D02*
Y451950D01*
X490945Y458268D02*
X494095D01*
X492520Y456693D02*
Y459842D01*
X490945Y438583D02*
X494095D01*
X492520Y437008D02*
Y440158D01*
X636633Y420472D02*
X640533D01*
X638583Y418523D02*
Y422423D01*
X636633Y402756D02*
X640533D01*
X638583Y400806D02*
Y404706D01*
X611042Y402756D02*
X614942D01*
X612992Y400806D02*
Y404706D01*
X611042Y420472D02*
X614942D01*
X612992Y418523D02*
Y422423D01*
X737420Y450000D02*
X741320D01*
X739370Y448050D02*
Y451950D01*
X737420Y432283D02*
X741320D01*
X739370Y430334D02*
Y434234D01*
X763011Y432283D02*
X766911D01*
X764961Y430334D02*
Y434234D01*
X763011Y450000D02*
X766911D01*
X764961Y448050D02*
Y451950D01*
X616142Y596457D02*
X620079D01*
X618110Y594488D02*
Y598425D01*
X616142Y616142D02*
X620079D01*
X618110Y614173D02*
Y618110D01*
X659055Y596457D02*
X662992D01*
X661024Y594488D02*
Y598425D01*
X659055Y616142D02*
X662992D01*
X661024Y614173D02*
Y618110D01*
X520472Y582677D02*
X524409D01*
X522441Y580709D02*
Y584646D01*
X520472Y543307D02*
X524409D01*
X522441Y541339D02*
Y545276D01*
X441732Y602362D02*
X445669D01*
X443701Y600394D02*
Y604331D01*
X441732Y523622D02*
X445669D01*
X443701Y521654D02*
Y525591D01*
X413878Y598740D02*
X420768D01*
X417323Y595295D02*
Y602185D01*
X413878Y578740D02*
X420768D01*
X417323Y575295D02*
Y582185D01*
X740256Y568110D02*
X741634D01*
X740945Y567421D02*
Y568799D01*
X571752Y578740D02*
X573130D01*
X572441Y578051D02*
Y579429D01*
X622933Y577559D02*
X624311D01*
X623622Y576870D02*
Y578248D01*
X672146Y577559D02*
X673524D01*
X672835Y576870D02*
Y578248D01*
X424508Y419685D02*
X425886D01*
X425197Y418996D02*
Y420374D01*
X457185Y403543D02*
X458563D01*
X457874Y402854D02*
Y404232D01*
X432382Y404724D02*
X433760D01*
X433071Y404035D02*
Y405413D01*
X661909Y540945D02*
X663287D01*
X662598Y540256D02*
Y541634D01*
X661909Y554724D02*
X663287D01*
X662598Y554035D02*
Y555413D01*
X718602Y487008D02*
X719980D01*
X719291Y486319D02*
Y487697D01*
X746949Y398819D02*
X748327D01*
X747638Y398130D02*
Y399508D01*
X776476Y420472D02*
X777854D01*
X777165Y419783D02*
Y421161D01*
X753642Y463779D02*
X755020D01*
X754331Y463091D02*
Y464468D01*
X739075Y510236D02*
X740453D01*
X739764Y509547D02*
Y510925D01*
X708366Y499606D02*
X709744D01*
X709055Y498917D02*
Y500295D01*
X568209Y403543D02*
X569587D01*
X568898Y402854D02*
Y404232D01*
X556398Y403543D02*
X557776D01*
X557087Y402854D02*
Y404232D01*
X540650Y403543D02*
X542028D01*
X541339Y402854D02*
Y404232D01*
X520965Y403543D02*
X522342D01*
X521654Y402854D02*
Y404232D01*
X505217Y403543D02*
X506595D01*
X505905Y402854D02*
Y404232D01*
X556791Y466929D02*
X558169D01*
X557480Y466240D02*
Y467618D01*
X544980Y466929D02*
X546358D01*
X545669Y466240D02*
Y467618D01*
X537106Y466929D02*
X538484D01*
X537795Y466240D02*
Y467618D01*
X674114Y442520D02*
X675492D01*
X674803Y441831D02*
Y443209D01*
X689862Y442520D02*
X691240D01*
X690551Y441831D02*
Y443209D01*
X689862Y458268D02*
X691240D01*
X690551Y457579D02*
Y458957D01*
X674114Y458268D02*
X675492D01*
X674803Y457579D02*
Y458957D01*
X570965Y551968D02*
X572342D01*
X571654Y551279D02*
Y552658D01*
X570965Y536221D02*
X572342D01*
X571654Y535532D02*
Y536909D01*
X574902Y500787D02*
X576279D01*
X575591Y500098D02*
Y501476D01*
X574902Y520472D02*
X576279D01*
X575591Y519783D02*
Y521161D01*
X641437Y465354D02*
X642815D01*
X642126Y464665D02*
Y466043D01*
X649311Y464961D02*
X650689D01*
X650000Y464272D02*
Y465650D01*
X758465Y583071D02*
X759646D01*
X759055Y582480D02*
Y583661D01*
X744291Y575591D02*
X745472D01*
X744882Y575000D02*
Y576181D01*
X710433Y590158D02*
X711614D01*
X711024Y589567D02*
Y590748D01*
X757283Y590158D02*
X758465D01*
X757874Y589567D02*
Y590748D01*
X640748Y451575D02*
X641929D01*
X641339Y450984D02*
Y452165D01*
X773622Y401575D02*
X785433D01*
X779528Y395669D02*
Y407480D01*
X637992Y451968D02*
X639173D01*
X638583Y451378D02*
Y452559D01*
X452165Y451968D02*
X453346D01*
X452756Y451378D02*
Y452559D01*
X631299Y454331D02*
X632480D01*
X631890Y453740D02*
Y454921D01*
X452165Y455118D02*
X453346D01*
X452756Y454528D02*
Y455709D01*
X448228Y461417D02*
X449409D01*
X448819Y460827D02*
Y462008D01*
X773622Y622047D02*
X785433D01*
X779528Y616142D02*
Y627953D01*
X395669Y622047D02*
X407480D01*
X401575Y616142D02*
Y627953D01*
X395669Y401575D02*
X407480D01*
X401575Y395669D02*
Y407480D01*
M02*
