M48
;Layer_Color=9474304
;FILE_FORMAT=4:4
METRIC,LZ
;TYPE=PLATED
T1F00S00C0.3000
T2F00S00C0.3500
T3F00S00C0.7000
T4F00S00C0.8000
T5F00S00C0.8700
T6F00S00C0.9906
T7F00S00C1.0000
T8F00S00C1.7500
T9F00S00C3.0000
%
T01
X00203Y00169
Y00177
X00193Y00193
X00658Y00175
X00675Y00169
X00682Y00168
X00859Y0052
X00978
X00981Y00502
X00945Y00483
T02
X00153Y00049
X00133Y00087
X00216Y00046
X00338
X00378
X00428
X00468
X00498
X00469Y00207
X00439
X00419
X00684Y00203
X00704Y00202
X00767Y00185
Y00145
X00807
Y00185
X00969Y00199
X01027Y00089
X00952Y00034
X0088Y00258
X00854Y0029
X00932Y00317
X00935Y00464
X00762Y00488
X00736Y0043
Y00395
X00637Y00488
X00507Y00491
X00505Y00423
Y00383
X00515Y00343
Y00293
T03
X00773Y002693
Y00295
X00799
Y002693
T04
X00304Y00135
Y00185
X0086135Y0038158
Y0043158
T05
X00793Y00046
X00808
X00823
X00838
X00853
X00868
T06
X00388Y00119
Y00164
X00453
Y00119
X0061Y00089
Y00044
X00675
Y00089
X00931Y00119
Y00164
X00996
Y00119
X0059354Y00393
Y00438
X0052854
Y00393
T07
X00732Y00536
Y00586
X00623
Y00536
X0038Y00501
Y00401
X0018Y00351
Y00551
T08
X00996Y002626
Y003134
X00113Y00491
Y005418
T09
X00073Y00041
X01033
Y00601
X00073
M30
