G04*
G04 #@! TF.GenerationSoftware,Altium Limited,Altium Designer,23.5.1 (21)*
G04*
G04 Layer_Color=65535*
%FSLAX25Y25*%
%MOIN*%
G70*
G04*
G04 #@! TF.SameCoordinates,AFD14176-74B1-4AA8-BEBF-F55300C3C1FD*
G04*
G04*
G04 #@! TF.FilePolarity,Positive*
G04*
G01*
G75*
%ADD10C,0.00787*%
%ADD11C,0.01968*%
%ADD12C,0.00984*%
%ADD13C,0.00394*%
%ADD14C,0.00600*%
G36*
X634449Y556866D02*
X632087Y559228D01*
X634449Y561591D01*
Y556866D01*
D02*
G37*
G36*
Y550591D02*
X632087Y552953D01*
X634449Y555315D01*
Y550591D01*
D02*
G37*
G36*
Y544095D02*
X632087Y546457D01*
X634449Y548819D01*
Y544095D01*
D02*
G37*
G36*
X634449Y537402D02*
X632087Y539764D01*
X634449Y542126D01*
Y537402D01*
D02*
G37*
G36*
X714961Y448779D02*
X712598Y446417D01*
Y451142D01*
X714961Y448779D01*
D02*
G37*
G36*
X579921Y446417D02*
X577559Y448779D01*
X579921Y451142D01*
Y446417D01*
D02*
G37*
G36*
X714961Y441268D02*
X712598Y438905D01*
Y443630D01*
X714961Y441268D01*
D02*
G37*
G36*
X579921Y438905D02*
X577559Y441268D01*
X579921Y443630D01*
Y438905D01*
D02*
G37*
G36*
X469291Y434646D02*
X466929Y437008D01*
X471654D01*
X469291Y434646D01*
D02*
G37*
G36*
X579921Y431394D02*
X577559Y433756D01*
X579921Y436118D01*
Y431394D01*
D02*
G37*
D10*
X731634Y545504D02*
G03*
X731634Y545504I-19685J0D01*
G01*
X512205Y448425D02*
G03*
X512205Y448425I-19685J0D01*
G01*
X684252Y540551D02*
X687795D01*
Y537008D02*
Y540551D01*
X684252Y528740D02*
X687795D01*
Y532283D01*
X656693Y463386D02*
Y487008D01*
X633071Y463386D02*
X656693D01*
X633071D02*
Y483071D01*
X637008Y487008D01*
X656693D01*
X596190Y480458D02*
X600644Y484912D01*
X605377Y470715D02*
X610109Y475447D01*
X458661Y441339D02*
X462205D01*
Y437795D02*
Y441339D01*
X458661Y429528D02*
X462205D01*
Y433071D01*
D11*
X581219Y564157D02*
G03*
X581219Y564157I-707J0D01*
G01*
X690748Y504724D02*
G03*
X690748Y504724I-197J0D01*
G01*
X629921Y490945D02*
G03*
X629921Y490945I-787J0D01*
G01*
X525888Y456284D02*
G03*
X525888Y456284I-707J0D01*
G01*
X613290Y426756D02*
G03*
X613290Y426756I-707J0D01*
G01*
X739668Y456284D02*
G03*
X739668Y456284I-707J0D01*
G01*
D12*
X718248Y555346D02*
X722185D01*
X720217Y553378D02*
Y557315D01*
X498819Y458268D02*
X502756D01*
X500787Y456299D02*
Y460236D01*
D13*
X685039Y547244D02*
X688976D01*
Y558268D01*
X685039D02*
X688976D01*
X685039Y547244D02*
Y558268D01*
X673228Y529134D02*
Y540158D01*
X677165D01*
Y529134D02*
Y540158D01*
X673228Y529134D02*
X677165D01*
X632087Y537795D02*
Y541732D01*
X632087Y544488D02*
Y548425D01*
Y550984D02*
Y554921D01*
Y557260D02*
Y561197D01*
X597244Y531102D02*
X608268D01*
X597244D02*
Y535039D01*
X608268D01*
Y531102D02*
Y535039D01*
X693701Y491732D02*
X697638D01*
Y502756D01*
X693701D02*
X697638D01*
X693701Y491732D02*
Y502756D01*
X674016Y504724D02*
X690551D01*
Y488189D02*
Y504724D01*
X674016Y488189D02*
X690551D01*
X674016D02*
Y504724D01*
X670079Y496063D02*
Y507087D01*
X666142Y496063D02*
X670079D01*
X666142D02*
Y507087D01*
X670079D01*
X625197Y498032D02*
X636221D01*
X625197D02*
Y501968D01*
X636221D01*
Y498032D02*
Y501968D01*
X629528Y505118D02*
Y509055D01*
Y505118D02*
X640551D01*
Y509055D01*
X629528D02*
X640551D01*
X611024Y508071D02*
X615748D01*
X611024Y506102D02*
X615748D01*
X601575Y508071D02*
X606299D01*
X601575Y506102D02*
X606299D01*
X592877Y485425D02*
X600672Y493220D01*
X603456Y490436D01*
X595661Y482641D02*
X603456Y490436D01*
X592877Y485425D02*
X595661Y482641D01*
X587759Y471268D02*
X590543Y474052D01*
X587759Y471268D02*
X595554Y463473D01*
X598338Y466257D01*
X590543Y474052D02*
X598338Y466257D01*
X608268Y456299D02*
Y460236D01*
X597244D02*
X608268D01*
X597244Y456299D02*
Y460236D01*
Y456299D02*
X608268D01*
X597244Y450000D02*
X608268D01*
X597244D02*
Y453937D01*
X608268D01*
Y450000D02*
Y453937D01*
X614173Y449606D02*
Y460630D01*
X618110D01*
Y449606D02*
Y460630D01*
X614173Y449606D02*
X618110D01*
X577559Y431787D02*
Y435724D01*
Y439299D02*
Y443236D01*
X577559Y446811D02*
Y450748D01*
X542520Y420866D02*
X553543D01*
Y416929D02*
Y420866D01*
X542520Y416929D02*
X553543D01*
X542520D02*
Y420866D01*
X559842Y441370D02*
X570866D01*
X559842D02*
Y445307D01*
X570866D01*
Y441370D02*
Y445307D01*
X559842Y435039D02*
X570866D01*
X559842D02*
Y438976D01*
X570866D01*
Y435039D02*
Y438976D01*
X559842Y447701D02*
X570866D01*
X559842D02*
Y451638D01*
X570866D01*
Y447701D02*
Y451638D01*
X446063Y430315D02*
Y441339D01*
X450000D01*
Y430315D02*
Y441339D01*
X446063Y430315D02*
X450000D01*
X467323Y434646D02*
X471260D01*
X644882Y406693D02*
X648819D01*
Y417717D01*
X644882D02*
X648819D01*
X644882Y406693D02*
Y417717D01*
X653543Y453937D02*
X664567D01*
Y450000D02*
Y453937D01*
X653543Y450000D02*
X664567D01*
X653543D02*
Y453937D01*
X714961Y446811D02*
Y450748D01*
Y439299D02*
Y443236D01*
X767323Y422835D02*
Y426772D01*
X756299D02*
X767323D01*
X756299Y422835D02*
Y426772D01*
Y422835D02*
X767323D01*
X722047Y447638D02*
Y451575D01*
Y447638D02*
X733071D01*
Y451575D01*
X722047D02*
X733071D01*
X722047Y439764D02*
Y443701D01*
Y439764D02*
X733071D01*
Y443701D01*
X722047D02*
X733071D01*
X625591Y550787D02*
Y554724D01*
X614567D02*
X625591D01*
X614567Y550787D02*
Y554724D01*
Y550787D02*
X625591D01*
Y555905D02*
Y559842D01*
X614567D02*
X625591D01*
X614567Y555905D02*
Y559842D01*
Y555905D02*
X625591D01*
Y545669D02*
Y549606D01*
X614567D02*
X625591D01*
X614567Y545669D02*
Y549606D01*
Y545669D02*
X625591D01*
Y540551D02*
Y544488D01*
X614567D02*
X625591D01*
X614567Y540551D02*
Y544488D01*
Y540551D02*
X625591D01*
X467445Y448331D02*
Y459354D01*
X471382D01*
Y448331D02*
Y459354D01*
X467445Y448331D02*
X471382D01*
X635302Y510433D02*
Y512401D01*
X636286D01*
X636614Y512073D01*
Y511417D01*
X636286Y511089D01*
X635302D01*
X635958D02*
X636614Y510433D01*
X637270D02*
X637926D01*
X637598D01*
Y512401D01*
X637270Y512073D01*
X611973Y488631D02*
X611509Y486312D01*
X612900Y487704D02*
X610581Y487240D01*
X611973Y485848D02*
X612437Y485385D01*
X612205Y485616D01*
X613596Y487008D01*
X613132Y487008D01*
X644029Y476968D02*
Y475328D01*
X644357Y475000D01*
X645013D01*
X645341Y475328D01*
Y476968D01*
X646981Y475000D02*
Y476968D01*
X645997Y475984D01*
X647309D01*
X617979Y427821D02*
X617652Y428149D01*
X616995D01*
X616668Y427821D01*
Y427493D01*
X616995Y427165D01*
X617652D01*
X617979Y426837D01*
Y426509D01*
X617652Y426181D01*
X616995D01*
X616668Y426509D01*
X618635Y428149D02*
Y426181D01*
X619291Y426837D01*
X619947Y426181D01*
Y428149D01*
X621587Y426181D02*
Y428149D01*
X620603Y427165D01*
X621915D01*
X584515Y564829D02*
X584187Y565157D01*
X583531D01*
X583203Y564829D01*
Y564501D01*
X583531Y564173D01*
X584187D01*
X584515Y563845D01*
Y563517D01*
X584187Y563189D01*
X583531D01*
X583203Y563517D01*
X585171Y565157D02*
Y563189D01*
X585827Y563845D01*
X586483Y563189D01*
Y565157D01*
X587139Y564829D02*
X587467Y565157D01*
X588123D01*
X588451Y564829D01*
Y564501D01*
X588123Y564173D01*
X587795D01*
X588123D01*
X588451Y563845D01*
Y563517D01*
X588123Y563189D01*
X587467D01*
X587139Y563517D01*
X745145Y457349D02*
X744817Y457677D01*
X744161D01*
X743833Y457349D01*
Y457021D01*
X744161Y456693D01*
X744817D01*
X745145Y456365D01*
Y456037D01*
X744817Y455709D01*
X744161D01*
X743833Y456037D01*
X745801Y457677D02*
Y455709D01*
X746457Y456365D01*
X747113Y455709D01*
Y457677D01*
X749081Y455709D02*
X747769D01*
X749081Y457021D01*
Y457349D01*
X748752Y457677D01*
X748097D01*
X747769Y457349D01*
X530118Y457743D02*
X529790Y458071D01*
X529135D01*
X528806Y457743D01*
Y457415D01*
X529135Y457087D01*
X529790D01*
X530118Y456759D01*
Y456431D01*
X529790Y456103D01*
X529135D01*
X528806Y456431D01*
X530774Y458071D02*
Y456103D01*
X531430Y456759D01*
X532086Y456103D01*
Y458071D01*
X532742Y456103D02*
X533398D01*
X533070D01*
Y458071D01*
X532742Y457743D01*
X644227Y418701D02*
Y420669D01*
X645211D01*
X645539Y420341D01*
Y419685D01*
X645211Y419357D01*
X644227D01*
X644882D02*
X645539Y418701D01*
X647506D02*
X646194D01*
X647506Y420013D01*
Y420341D01*
X647178Y420669D01*
X646522D01*
X646194Y420341D01*
X649474Y420669D02*
X648162D01*
Y419685D01*
X648818Y420013D01*
X649146D01*
X649474Y419685D01*
Y419029D01*
X649146Y418701D01*
X648490D01*
X648162Y419029D01*
X722179Y452953D02*
Y454921D01*
X723163D01*
X723491Y454593D01*
Y453937D01*
X723163Y453609D01*
X722179D01*
X722835D02*
X723491Y452953D01*
X725459D02*
X724147D01*
X725459Y454265D01*
Y454593D01*
X725131Y454921D01*
X724475D01*
X724147Y454593D01*
X727099Y452953D02*
Y454921D01*
X726115Y453937D01*
X727427D01*
X722573Y436024D02*
Y437992D01*
X723557D01*
X723885Y437664D01*
Y437008D01*
X723557Y436680D01*
X722573D01*
X723229D02*
X723885Y436024D01*
X725853D02*
X724541D01*
X725853Y437336D01*
Y437664D01*
X725525Y437992D01*
X724869D01*
X724541Y437664D01*
X726509D02*
X726837Y437992D01*
X727493D01*
X727821Y437664D01*
Y437336D01*
X727493Y437008D01*
X727165D01*
X727493D01*
X727821Y436680D01*
Y436352D01*
X727493Y436024D01*
X726837D01*
X726509Y436352D01*
X600526Y527756D02*
Y529724D01*
X601510D01*
X601838Y529396D01*
Y528740D01*
X601510Y528412D01*
X600526D01*
X601182D02*
X601838Y527756D01*
X603806D02*
X602494D01*
X603806Y529068D01*
Y529396D01*
X603478Y529724D01*
X602822D01*
X602494Y529396D01*
X605773Y527756D02*
X604461D01*
X605773Y529068D01*
Y529396D01*
X605445Y529724D01*
X604789D01*
X604461Y529396D01*
X614800Y562400D02*
Y564368D01*
X615784D01*
X616112Y564040D01*
Y563384D01*
X615784Y563056D01*
X614800D01*
X615456D02*
X616112Y562400D01*
X618080D02*
X616768D01*
X618080Y563712D01*
Y564040D01*
X617752Y564368D01*
X617096D01*
X616768Y564040D01*
X618736Y562400D02*
X619392D01*
X619064D01*
Y564368D01*
X618736Y564040D01*
X672179Y541536D02*
Y543504D01*
X673163D01*
X673491Y543176D01*
Y542520D01*
X673163Y542192D01*
X672179D01*
X672835D02*
X673491Y541536D01*
X675459D02*
X674147D01*
X675459Y542848D01*
Y543176D01*
X675131Y543504D01*
X674475D01*
X674147Y543176D01*
X676115D02*
X676443Y543504D01*
X677099D01*
X677427Y543176D01*
Y541864D01*
X677099Y541536D01*
X676443D01*
X676115Y541864D01*
Y543176D01*
X614800Y557300D02*
Y559268D01*
X615784D01*
X616112Y558940D01*
Y558284D01*
X615784Y557956D01*
X614800D01*
X615456D02*
X616112Y557300D01*
X616768D02*
X617424D01*
X617096D01*
Y559268D01*
X616768Y558940D01*
X618408Y557628D02*
X618736Y557300D01*
X619392D01*
X619720Y557628D01*
Y558940D01*
X619392Y559268D01*
X618736D01*
X618408Y558940D01*
Y558612D01*
X618736Y558284D01*
X619720D01*
X614800Y552200D02*
Y554168D01*
X615784D01*
X616112Y553840D01*
Y553184D01*
X615784Y552856D01*
X614800D01*
X615456D02*
X616112Y552200D01*
X616768D02*
X617424D01*
X617096D01*
Y554168D01*
X616768Y553840D01*
X618408D02*
X618736Y554168D01*
X619392D01*
X619720Y553840D01*
Y553512D01*
X619392Y553184D01*
X619720Y552856D01*
Y552528D01*
X619392Y552200D01*
X618736D01*
X618408Y552528D01*
Y552856D01*
X618736Y553184D01*
X618408Y553512D01*
Y553840D01*
X618736Y553184D02*
X619392D01*
X757383Y419488D02*
Y421456D01*
X758367D01*
X758695Y421128D01*
Y420472D01*
X758367Y420145D01*
X757383D01*
X758039D02*
X758695Y419488D01*
X759351D02*
X760007D01*
X759679D01*
Y421456D01*
X759351Y421128D01*
X760990Y421456D02*
X762302D01*
Y421128D01*
X760990Y419816D01*
Y419488D01*
X614800Y547100D02*
Y549068D01*
X615784D01*
X616112Y548740D01*
Y548084D01*
X615784Y547756D01*
X614800D01*
X615456D02*
X616112Y547100D01*
X616768D02*
X617424D01*
X617096D01*
Y549068D01*
X616768Y548740D01*
X619720Y549068D02*
X619064Y548740D01*
X618408Y548084D01*
Y547428D01*
X618736Y547100D01*
X619392D01*
X619720Y547428D01*
Y547756D01*
X619392Y548084D01*
X618408D01*
X559745Y431693D02*
Y433661D01*
X560729D01*
X561057Y433333D01*
Y432677D01*
X560729Y432349D01*
X559745D01*
X560401D02*
X561057Y431693D01*
X561713D02*
X562369D01*
X562041D01*
Y433661D01*
X561713Y433333D01*
X564665Y433661D02*
X563353D01*
Y432677D01*
X564009Y433005D01*
X564337D01*
X564665Y432677D01*
Y432021D01*
X564337Y431693D01*
X563681D01*
X563353Y432021D01*
X554233Y442717D02*
Y444685D01*
X555217D01*
X555545Y444357D01*
Y443701D01*
X555217Y443373D01*
X554233D01*
X554889D02*
X555545Y442717D01*
X556201D02*
X556857D01*
X556529D01*
Y444685D01*
X556201Y444357D01*
X558825Y442717D02*
Y444685D01*
X557841Y443701D01*
X559153D01*
X542816Y421851D02*
Y423819D01*
X543800D01*
X544128Y423491D01*
Y422835D01*
X543800Y422507D01*
X542816D01*
X543472D02*
X544128Y421851D01*
X544784D02*
X545440D01*
X545112D01*
Y423819D01*
X544784Y423491D01*
X546423D02*
X546751Y423819D01*
X547407D01*
X547735Y423491D01*
Y423163D01*
X547407Y422835D01*
X547080D01*
X547407D01*
X547735Y422507D01*
Y422179D01*
X547407Y421851D01*
X546751D01*
X546423Y422179D01*
X560139Y452559D02*
Y454527D01*
X561123D01*
X561450Y454199D01*
Y453543D01*
X561123Y453215D01*
X560139D01*
X560794D02*
X561450Y452559D01*
X562107D02*
X562762D01*
X562434D01*
Y454527D01*
X562107Y454199D01*
X565058Y452559D02*
X563746D01*
X565058Y453871D01*
Y454199D01*
X564730Y454527D01*
X564074D01*
X563746Y454199D01*
X446293Y442717D02*
Y444685D01*
X447277D01*
X447605Y444357D01*
Y443701D01*
X447277Y443373D01*
X446293D01*
X446949D02*
X447605Y442717D01*
X448261D02*
X448917D01*
X448589D01*
Y444685D01*
X448261Y444357D01*
X449901Y442717D02*
X450557D01*
X450229D01*
Y444685D01*
X449901Y444357D01*
X597540Y461221D02*
Y463189D01*
X598524D01*
X598852Y462861D01*
Y462205D01*
X598524Y461877D01*
X597540D01*
X598196D02*
X598852Y461221D01*
X599508D02*
X600164D01*
X599836D01*
Y463189D01*
X599508Y462861D01*
X601148D02*
X601476Y463189D01*
X602132D01*
X602460Y462861D01*
Y461549D01*
X602132Y461221D01*
X601476D01*
X601148Y461549D01*
Y462861D01*
X694029Y504134D02*
Y506102D01*
X695013D01*
X695341Y505774D01*
Y505118D01*
X695013Y504790D01*
X694029D01*
X694685D02*
X695341Y504134D01*
X695997Y505774D02*
X696325Y506102D01*
X696981D01*
X697309Y505774D01*
Y505446D01*
X696981Y505118D01*
X697309Y504790D01*
Y504462D01*
X696981Y504134D01*
X696325D01*
X695997Y504462D01*
Y504790D01*
X696325Y505118D01*
X695997Y505446D01*
Y505774D01*
X696325Y505118D02*
X696981D01*
X684711Y542257D02*
Y543569D01*
X684383Y543897D01*
X683728D01*
X683399Y543569D01*
Y542257D01*
X683728Y541929D01*
X684383D01*
X684055Y542585D02*
X684711Y541929D01*
X684383D02*
X684711Y542257D01*
X685367Y543569D02*
X685695Y543897D01*
X686351D01*
X686679Y543569D01*
Y543241D01*
X686351Y542913D01*
X686023D01*
X686351D01*
X686679Y542585D01*
Y542257D01*
X686351Y541929D01*
X685695D01*
X685367Y542257D01*
X458333Y443045D02*
Y444357D01*
X458006Y444685D01*
X457349D01*
X457022Y444357D01*
Y443045D01*
X457349Y442717D01*
X458006D01*
X457678Y443373D02*
X458333Y442717D01*
X458006D02*
X458333Y443045D01*
X460301Y442717D02*
X458989D01*
X460301Y444029D01*
Y444357D01*
X459973Y444685D01*
X459317D01*
X458989Y444357D01*
X681168Y508071D02*
X680512D01*
X680840D01*
Y506431D01*
X680512Y506103D01*
X680184D01*
X679856Y506431D01*
X683136Y506103D02*
X681824D01*
X683136Y507415D01*
Y507743D01*
X682808Y508071D01*
X682152D01*
X681824Y507743D01*
X712894Y454527D02*
Y452559D01*
X713878D01*
X714206Y452887D01*
Y454199D01*
X713878Y454527D01*
X712894D01*
X714862Y452559D02*
X715518D01*
X715190D01*
Y454527D01*
X714862Y454199D01*
X716502D02*
X716830Y454527D01*
X717486D01*
X717814Y454199D01*
Y452887D01*
X717486Y452559D01*
X716830D01*
X716502Y452887D01*
Y454199D01*
X714502Y446653D02*
Y444685D01*
X715486D01*
X715814Y445013D01*
Y446325D01*
X715486Y446653D01*
X714502D01*
X716470Y445013D02*
X716798Y444685D01*
X717454D01*
X717782Y445013D01*
Y446325D01*
X717454Y446653D01*
X716798D01*
X716470Y446325D01*
Y445997D01*
X716798Y445669D01*
X717782D01*
X639699Y560826D02*
Y558859D01*
X640683D01*
X641011Y559187D01*
Y560499D01*
X640683Y560826D01*
X639699D01*
X641667Y560499D02*
X641994Y560826D01*
X642651D01*
X642978Y560499D01*
Y560171D01*
X642651Y559842D01*
X642978Y559515D01*
Y559187D01*
X642651Y558859D01*
X641994D01*
X641667Y559187D01*
Y559515D01*
X641994Y559842D01*
X641667Y560171D01*
Y560499D01*
X641994Y559842D02*
X642651D01*
X639699Y554134D02*
Y552166D01*
X640683D01*
X641011Y552494D01*
Y553806D01*
X640683Y554134D01*
X639699D01*
X641667D02*
X642978D01*
Y553806D01*
X641667Y552494D01*
Y552166D01*
X639699Y547441D02*
Y545473D01*
X640683D01*
X641011Y545801D01*
Y547113D01*
X640683Y547441D01*
X639699D01*
X642978D02*
X642322Y547113D01*
X641667Y546457D01*
Y545801D01*
X641994Y545473D01*
X642651D01*
X642978Y545801D01*
Y546129D01*
X642651Y546457D01*
X641667D01*
X639699Y541141D02*
Y539174D01*
X640683D01*
X641011Y539501D01*
Y540813D01*
X640683Y541141D01*
X639699D01*
X642978D02*
X641667D01*
Y540158D01*
X642322Y540485D01*
X642651D01*
X642978Y540158D01*
Y539501D01*
X642651Y539174D01*
X641994D01*
X641667Y539501D01*
X584974Y434842D02*
Y432874D01*
X585958D01*
X586286Y433202D01*
Y434514D01*
X585958Y434842D01*
X584974D01*
X587926Y432874D02*
Y434842D01*
X586942Y433858D01*
X588254D01*
X584974Y442322D02*
Y440355D01*
X585958D01*
X586286Y440683D01*
Y441994D01*
X585958Y442322D01*
X584974D01*
X586942Y441994D02*
X587270Y442322D01*
X587926D01*
X588254Y441994D01*
Y441667D01*
X587926Y441339D01*
X587598D01*
X587926D01*
X588254Y441011D01*
Y440683D01*
X587926Y440355D01*
X587270D01*
X586942Y440683D01*
X584974Y450197D02*
Y448229D01*
X585958D01*
X586286Y448557D01*
Y449869D01*
X585958Y450197D01*
X584974D01*
X588254Y448229D02*
X586942D01*
X588254Y449541D01*
Y449869D01*
X587926Y450197D01*
X587270D01*
X586942Y449869D01*
X472704Y436023D02*
Y434055D01*
X473688D01*
X474016Y434383D01*
Y435695D01*
X473688Y436023D01*
X472704D01*
X474672Y434055D02*
X475328D01*
X475000D01*
Y436023D01*
X474672Y435695D01*
X685466Y561286D02*
X685138Y561614D01*
X684482D01*
X684154Y561286D01*
Y559974D01*
X684482Y559646D01*
X685138D01*
X685466Y559974D01*
X686122Y559646D02*
X686778D01*
X686450D01*
Y561614D01*
X686122Y561286D01*
X687762Y559974D02*
X688090Y559646D01*
X688746D01*
X689074Y559974D01*
Y561286D01*
X688746Y561614D01*
X688090D01*
X687762Y561286D01*
Y560958D01*
X688090Y560630D01*
X689074D01*
X468912Y463540D02*
X468584Y463868D01*
X467928D01*
X467600Y463540D01*
Y462228D01*
X467928Y461900D01*
X468584D01*
X468912Y462228D01*
X469568Y461900D02*
X470224D01*
X469896D01*
Y463868D01*
X469568Y463540D01*
X471208D02*
X471536Y463868D01*
X472192D01*
X472520Y463540D01*
Y463212D01*
X472192Y462884D01*
X472520Y462556D01*
Y462228D01*
X472192Y461900D01*
X471536D01*
X471208Y462228D01*
Y462556D01*
X471536Y462884D01*
X471208Y463212D01*
Y463540D01*
X471536Y462884D02*
X472192D01*
X598458Y448294D02*
X598130Y448622D01*
X597474D01*
X597147Y448294D01*
Y446982D01*
X597474Y446654D01*
X598130D01*
X598458Y446982D01*
X599114Y446654D02*
X599770D01*
X599442D01*
Y448622D01*
X599114Y448294D01*
X602066Y448622D02*
X601410Y448294D01*
X600754Y447638D01*
Y446982D01*
X601082Y446654D01*
X601738D01*
X602066Y446982D01*
Y447310D01*
X601738Y447638D01*
X600754D01*
X590112Y464866D02*
X590112Y464402D01*
X590576Y463939D01*
X591039Y463939D01*
X591967Y464866D01*
Y465330D01*
X591503Y465794D01*
X591039D01*
X590807Y466490D02*
X590344Y466953D01*
X590576Y466721D01*
X589184Y465330D01*
X589648Y465330D01*
X587329Y467185D02*
X588256Y466258D01*
X588952Y466953D01*
X588256Y467185D01*
X588024Y467417D01*
Y467881D01*
X588488Y468345D01*
X588952D01*
X589416Y467881D01*
Y467417D01*
X594000Y490597D02*
X593536Y490597D01*
X593072Y490133D01*
X593072Y489669D01*
X594000Y488742D01*
X594464D01*
X594928Y489206D01*
Y489669D01*
X595623Y489901D02*
X596087Y490365D01*
X595855Y490133D01*
X594464Y491525D01*
X594464Y491061D01*
X597479Y491757D02*
X596087Y493148D01*
Y491757D01*
X597015Y492684D01*
X614994Y463648D02*
X614666Y463976D01*
X614010D01*
X613682Y463648D01*
Y462336D01*
X614010Y462008D01*
X614666D01*
X614994Y462336D01*
X615650Y462008D02*
X616306D01*
X615978D01*
Y463976D01*
X615650Y463648D01*
X617290D02*
X617618Y463976D01*
X618274D01*
X618602Y463648D01*
Y463320D01*
X618274Y462992D01*
X617946D01*
X618274D01*
X618602Y462664D01*
Y462336D01*
X618274Y462008D01*
X617618D01*
X617290Y462336D01*
X655939Y456562D02*
X655611Y456889D01*
X654955D01*
X654627Y456562D01*
Y455250D01*
X654955Y454922D01*
X655611D01*
X655939Y455250D01*
X656595Y454922D02*
X657251D01*
X656923D01*
Y456889D01*
X656595Y456562D01*
X659546Y454922D02*
X658235D01*
X659546Y456234D01*
Y456562D01*
X659219Y456889D01*
X658563D01*
X658235Y456562D01*
X666897Y510105D02*
X666569Y510433D01*
X665913D01*
X665585Y510105D01*
Y508793D01*
X665913Y508465D01*
X666569D01*
X666897Y508793D01*
X667553Y508465D02*
X668209D01*
X667880D01*
Y510433D01*
X667553Y510105D01*
X669192Y508465D02*
X669848D01*
X669520D01*
Y510433D01*
X669192Y510105D01*
X638616Y500656D02*
X638288Y500984D01*
X637632D01*
X637304Y500656D01*
Y499344D01*
X637632Y499016D01*
X638288D01*
X638616Y499344D01*
X639272Y499016D02*
X639928D01*
X639600D01*
Y500984D01*
X639272Y500656D01*
X640912D02*
X641240Y500984D01*
X641896D01*
X642224Y500656D01*
Y499344D01*
X641896Y499016D01*
X641240D01*
X640912Y499344D01*
Y500656D01*
X613058Y514829D02*
X612730Y515157D01*
X612074D01*
X611746Y514829D01*
Y513517D01*
X612074Y513189D01*
X612730D01*
X613058Y513517D01*
X613714D02*
X614042Y513189D01*
X614698D01*
X615026Y513517D01*
Y514829D01*
X614698Y515157D01*
X614042D01*
X613714Y514829D01*
Y514501D01*
X614042Y514173D01*
X615026D01*
X603609Y514829D02*
X603281Y515157D01*
X602625D01*
X602297Y514829D01*
Y513517D01*
X602625Y513189D01*
X603281D01*
X603609Y513517D01*
X604265Y514829D02*
X604593Y515157D01*
X605249D01*
X605577Y514829D01*
Y514501D01*
X605249Y514173D01*
X605577Y513845D01*
Y513517D01*
X605249Y513189D01*
X604593D01*
X604265Y513517D01*
Y513845D01*
X604593Y514173D01*
X604265Y514501D01*
Y514829D01*
X604593Y514173D02*
X605249D01*
X699345Y567913D02*
Y565945D01*
X700329D01*
X700657Y566273D01*
Y566601D01*
X700329Y566929D01*
X699345D01*
X700329D01*
X700657Y567257D01*
Y567585D01*
X700329Y567913D01*
X699345D01*
X701313D02*
X702625D01*
Y567585D01*
X701313Y566273D01*
Y565945D01*
X702625D01*
X704592D02*
X703280D01*
X704592Y567257D01*
Y567585D01*
X704264Y567913D01*
X703608D01*
X703280Y567585D01*
X480775Y471063D02*
Y469095D01*
X481759D01*
X482087Y469423D01*
Y469751D01*
X481759Y470079D01*
X480775D01*
X481759D01*
X482087Y470407D01*
Y470735D01*
X481759Y471063D01*
X480775D01*
X482743D02*
X484055D01*
Y470735D01*
X482743Y469423D01*
Y469095D01*
X484055D01*
X484711D02*
X485367D01*
X485039D01*
Y471063D01*
X484711Y470735D01*
D14*
X583432Y536716D02*
X604001D01*
X606017Y544389D02*
Y553643D01*
X585085Y561316D02*
X604001D01*
X581417Y544389D02*
Y553614D01*
X528101Y428842D02*
X548671D01*
X550686Y436515D02*
Y445769D01*
X529755Y453442D02*
X548671D01*
X526086Y436515D02*
Y445740D01*
X613487Y406987D02*
Y416212D01*
X617156Y423914D02*
X636072D01*
X638087Y406987D02*
Y416241D01*
X615503Y399314D02*
X636072D01*
X741881Y428842D02*
X762450D01*
X764465Y436515D02*
Y445769D01*
X743534Y453442D02*
X762450D01*
X739865Y436515D02*
Y445740D01*
M02*
