G04*
G04 #@! TF.GenerationSoftware,Altium Limited,Altium Designer,23.5.1 (21)*
G04*
G04 Layer_Color=16711935*
%FSLAX25Y25*%
%MOIN*%
G70*
G04*
G04 #@! TF.SameCoordinates,AFD14176-74B1-4AA8-BEBF-F55300C3C1FD*
G04*
G04*
G04 #@! TF.FilePolarity,Negative*
G04*
G01*
G75*
%ADD25R,0.03494X0.04194*%
%ADD27R,0.03150X0.05512*%
%ADD28R,0.04194X0.03494*%
%ADD31R,0.05512X0.03150*%
%ADD35C,0.12205*%
%ADD36O,0.05118X0.07087*%
%ADD37C,0.08268*%
%ADD38R,0.05900X0.05900*%
%ADD39C,0.05721*%
%ADD40C,0.12611*%
%ADD51R,0.23300X0.21700*%
%ADD52R,0.09800X0.03700*%
%ADD53R,0.07600X0.02100*%
%ADD62R,0.08268X0.04724*%
%ADD63R,0.02362X0.06299*%
%ADD64R,0.06693X0.13386*%
%ADD65R,0.06693X0.05118*%
%ADD66R,0.06693X0.03937*%
%ADD67R,0.06496X0.05118*%
%ADD68R,0.06693X0.06693*%
D25*
X439764Y461417D02*
D03*
Y467717D02*
D03*
X762205Y567322D02*
D03*
Y573622D02*
D03*
X773228Y555118D02*
D03*
Y561418D02*
D03*
X779528Y555118D02*
D03*
Y561418D02*
D03*
X732283Y607875D02*
D03*
Y601575D02*
D03*
D27*
X746654Y624409D02*
D03*
X739173D02*
D03*
D28*
X446457Y455118D02*
D03*
X440157D02*
D03*
X753149Y625197D02*
D03*
X759449D02*
D03*
X702362Y412992D02*
D03*
X708662D02*
D03*
D31*
X773622Y600000D02*
D03*
Y607480D02*
D03*
X780709Y599803D02*
D03*
Y607283D02*
D03*
D35*
X764961Y488819D02*
D03*
Y508819D02*
D03*
X417323Y598740D02*
D03*
Y578740D02*
D03*
D36*
X714567Y403543D02*
D03*
X708661D02*
D03*
X702756D02*
D03*
X696850D02*
D03*
X690945D02*
D03*
X685039D02*
D03*
D37*
X711949Y555346D02*
D03*
Y535661D02*
D03*
X492520Y458268D02*
D03*
Y438583D02*
D03*
X618110Y596457D02*
D03*
Y616142D02*
D03*
X661024Y596457D02*
D03*
Y616142D02*
D03*
X522441Y582677D02*
D03*
Y543307D02*
D03*
X443701Y602362D02*
D03*
Y523622D02*
D03*
D38*
X580921Y557874D02*
D03*
X525591Y450000D02*
D03*
X612992Y420472D02*
D03*
X739370Y450000D02*
D03*
D39*
X687402Y491457D02*
D03*
X677165D02*
D03*
Y501575D02*
D03*
X687402D02*
D03*
D40*
X779528Y401575D02*
D03*
Y622047D02*
D03*
X401575D02*
D03*
Y401575D02*
D03*
D51*
X747759Y538134D02*
D03*
D52*
X780709Y529134D02*
D03*
Y547134D02*
D03*
D53*
X722624Y620886D02*
D03*
Y615886D02*
D03*
Y610886D02*
D03*
Y605886D02*
D03*
X686824D02*
D03*
Y610886D02*
D03*
Y615886D02*
D03*
Y620886D02*
D03*
D62*
X432283Y474882D02*
D03*
Y464882D02*
D03*
Y454882D02*
D03*
Y444882D02*
D03*
Y434882D02*
D03*
D63*
X767697Y568307D02*
D03*
X772697D02*
D03*
X777697D02*
D03*
X782697D02*
D03*
Y589961D02*
D03*
X777697D02*
D03*
X772697D02*
D03*
X767697D02*
D03*
D64*
X740551Y607480D02*
D03*
D65*
X765748Y598425D02*
D03*
Y607480D02*
D03*
Y616535D02*
D03*
D66*
X732677Y625000D02*
D03*
Y613583D02*
D03*
D67*
X549606Y599980D02*
D03*
Y620492D02*
D03*
X584252Y599980D02*
D03*
Y620492D02*
D03*
D68*
X592520Y609449D02*
D03*
Y623622D02*
D03*
M02*
