G04*
G04 #@! TF.GenerationSoftware,Altium Limited,Altium Designer,23.5.1 (21)*
G04*
G04 Layer_Color=8421504*
%FSLAX25Y25*%
%MOIN*%
G70*
G04*
G04 #@! TF.SameCoordinates,AFD14176-74B1-4AA8-BEBF-F55300C3C1FD*
G04*
G04*
G04 #@! TF.FilePolarity,Positive*
G04*
G01*
G75*
%ADD15R,0.03100X0.03800*%
%ADD16R,0.04331X0.03150*%
%ADD17R,0.02756X0.05118*%
%ADD18R,0.03800X0.03100*%
%ADD19R,0.04724X0.01181*%
%ADD20R,0.01181X0.04724*%
%ADD21R,0.05118X0.02756*%
G04:AMPARAMS|DCode=22|XSize=31mil|YSize=38mil|CornerRadius=0mil|HoleSize=0mil|Usage=FLASHONLY|Rotation=315.000|XOffset=0mil|YOffset=0mil|HoleType=Round|Shape=Rectangle|*
%AMROTATEDRECTD22*
4,1,4,-0.02439,-0.00248,0.00248,0.02439,0.02439,0.00248,-0.00248,-0.02439,-0.02439,-0.00248,0.0*
%
%ADD22ROTATEDRECTD22*%

G04:AMPARAMS|DCode=23|XSize=62.99mil|YSize=49.21mil|CornerRadius=0mil|HoleSize=0mil|Usage=FLASHONLY|Rotation=225.000|XOffset=0mil|YOffset=0mil|HoleType=Round|Shape=Rectangle|*
%AMROTATEDRECTD23*
4,1,4,0.00487,0.03967,0.03967,0.00487,-0.00487,-0.03967,-0.03967,-0.00487,0.00487,0.03967,0.0*
%
%ADD23ROTATEDRECTD23*%

G04:AMPARAMS|DCode=24|XSize=31mil|YSize=38mil|CornerRadius=0mil|HoleSize=0mil|Usage=FLASHONLY|Rotation=225.000|XOffset=0mil|YOffset=0mil|HoleType=Round|Shape=Rectangle|*
%AMROTATEDRECTD24*
4,1,4,-0.00248,0.02439,0.02439,-0.00248,0.00248,-0.02439,-0.02439,0.00248,-0.00248,0.02439,0.0*
%
%ADD24ROTATEDRECTD24*%

D15*
X687008Y555906D02*
D03*
Y549606D02*
D03*
X675197Y531496D02*
D03*
Y537796D02*
D03*
X695669Y500394D02*
D03*
Y494094D02*
D03*
X668110Y504725D02*
D03*
Y498425D02*
D03*
X616142Y451968D02*
D03*
Y458268D02*
D03*
X448032Y432677D02*
D03*
Y438977D02*
D03*
X646850Y415355D02*
D03*
Y409055D02*
D03*
X469413Y450693D02*
D03*
Y456992D02*
D03*
D16*
X680925Y538386D02*
D03*
Y530905D02*
D03*
X688366Y534646D02*
D03*
X455335Y439173D02*
D03*
Y431693D02*
D03*
X462776Y435433D02*
D03*
D17*
X629528Y539764D02*
D03*
X637008D02*
D03*
X629528Y546457D02*
D03*
X637008D02*
D03*
X629528Y552953D02*
D03*
X637008D02*
D03*
X629528Y559228D02*
D03*
X637008D02*
D03*
X575000Y433756D02*
D03*
X582480D02*
D03*
X575000Y441268D02*
D03*
X582480D02*
D03*
X575000Y448779D02*
D03*
X582480D02*
D03*
X710039D02*
D03*
X717520D02*
D03*
X710039Y441268D02*
D03*
X717520D02*
D03*
D18*
X605906Y533071D02*
D03*
X599606D02*
D03*
X633859Y500000D02*
D03*
X627559D02*
D03*
X638189Y507087D02*
D03*
X631889D02*
D03*
X599606Y458268D02*
D03*
X605906D02*
D03*
Y451968D02*
D03*
X599606D02*
D03*
X544881Y418898D02*
D03*
X551182D02*
D03*
X568504Y443339D02*
D03*
X562204D02*
D03*
X568504Y437008D02*
D03*
X562204D02*
D03*
X568504Y449669D02*
D03*
X562204D02*
D03*
X655905Y451968D02*
D03*
X662205D02*
D03*
X758661Y424803D02*
D03*
X764961D02*
D03*
X730709Y449606D02*
D03*
X724409D02*
D03*
X730709Y441732D02*
D03*
X724409D02*
D03*
X616929Y552756D02*
D03*
X623229D02*
D03*
X616929Y557874D02*
D03*
X623229D02*
D03*
X616929Y547638D02*
D03*
X623229D02*
D03*
X616929Y542520D02*
D03*
X623229D02*
D03*
D19*
X628150Y486024D02*
D03*
Y484055D02*
D03*
Y482087D02*
D03*
Y480118D02*
D03*
Y478150D02*
D03*
Y476181D02*
D03*
Y474213D02*
D03*
Y472244D02*
D03*
Y470276D02*
D03*
Y468307D02*
D03*
Y466339D02*
D03*
Y464370D02*
D03*
X661614D02*
D03*
Y466339D02*
D03*
Y468307D02*
D03*
Y470276D02*
D03*
Y472244D02*
D03*
Y474213D02*
D03*
Y476181D02*
D03*
Y478150D02*
D03*
Y480118D02*
D03*
Y482087D02*
D03*
Y484055D02*
D03*
Y486024D02*
D03*
D20*
X634055Y458465D02*
D03*
X636024D02*
D03*
X637992D02*
D03*
X639961D02*
D03*
X641929D02*
D03*
X643898D02*
D03*
X645866D02*
D03*
X647835D02*
D03*
X649803D02*
D03*
X651772D02*
D03*
X653740D02*
D03*
X655709D02*
D03*
Y491929D02*
D03*
X653740D02*
D03*
X651772D02*
D03*
X649803D02*
D03*
X647835D02*
D03*
X645866D02*
D03*
X643898D02*
D03*
X641929D02*
D03*
X639961D02*
D03*
X637992D02*
D03*
X636024D02*
D03*
X634055D02*
D03*
D21*
X613386Y510827D02*
D03*
Y503346D02*
D03*
X603937Y510827D02*
D03*
Y503346D02*
D03*
X469291Y439567D02*
D03*
Y432087D02*
D03*
D22*
X595939Y485703D02*
D03*
X600394Y490158D02*
D03*
D23*
X601062Y469740D02*
D03*
X611362Y480041D02*
D03*
X594937Y475865D02*
D03*
X605237Y486165D02*
D03*
D24*
X595276Y466535D02*
D03*
X590821Y470990D02*
D03*
M02*
