G04*
G04 #@! TF.GenerationSoftware,Altium Limited,Altium Designer,23.5.1 (21)*
G04*
G04 Layer_Color=128*
%FSLAX25Y25*%
%MOIN*%
G70*
G04*
G04 #@! TF.SameCoordinates,AFD14176-74B1-4AA8-BEBF-F55300C3C1FD*
G04*
G04*
G04 #@! TF.FilePolarity,Positive*
G04*
G01*
G75*
%ADD15R,0.03100X0.03800*%
%ADD17R,0.02756X0.05118*%
%ADD18R,0.03800X0.03100*%
%ADD21R,0.05118X0.02756*%
%ADD49R,0.07874X0.04331*%
%ADD50R,0.01968X0.05906*%
%ADD51R,0.23300X0.21700*%
%ADD52R,0.09800X0.03700*%
%ADD53R,0.07600X0.02100*%
%ADD54R,0.06299X0.12992*%
%ADD55R,0.06299X0.04724*%
%ADD56R,0.06299X0.03543*%
%ADD57R,0.06102X0.04724*%
%ADD58R,0.06299X0.06299*%
D15*
X439764Y461417D02*
D03*
Y467717D02*
D03*
X762205Y567322D02*
D03*
Y573622D02*
D03*
X773228Y555118D02*
D03*
Y561418D02*
D03*
X779528Y555118D02*
D03*
Y561418D02*
D03*
X732283Y607875D02*
D03*
Y601575D02*
D03*
D17*
X746654Y624409D02*
D03*
X739173D02*
D03*
D18*
X446457Y455118D02*
D03*
X440157D02*
D03*
X753149Y625197D02*
D03*
X759449D02*
D03*
X702362Y412992D02*
D03*
X708662D02*
D03*
D21*
X773622Y600000D02*
D03*
Y607480D02*
D03*
X780709Y599803D02*
D03*
Y607283D02*
D03*
D49*
X432283Y474882D02*
D03*
Y464882D02*
D03*
Y454882D02*
D03*
Y444882D02*
D03*
Y434882D02*
D03*
D50*
X767697Y568307D02*
D03*
X772697D02*
D03*
X777697D02*
D03*
X782697D02*
D03*
Y589961D02*
D03*
X777697D02*
D03*
X772697D02*
D03*
X767697D02*
D03*
D51*
X747759Y538134D02*
D03*
D52*
X780709Y529134D02*
D03*
Y547134D02*
D03*
D53*
X722624Y620886D02*
D03*
Y615886D02*
D03*
Y610886D02*
D03*
Y605886D02*
D03*
X686824D02*
D03*
Y610886D02*
D03*
Y615886D02*
D03*
Y620886D02*
D03*
D54*
X740551Y607480D02*
D03*
D55*
X765748Y598425D02*
D03*
Y607480D02*
D03*
Y616535D02*
D03*
D56*
X732677Y625000D02*
D03*
Y613583D02*
D03*
D57*
X549606Y599980D02*
D03*
Y620492D02*
D03*
X584252Y599980D02*
D03*
Y620492D02*
D03*
D58*
X592520Y609449D02*
D03*
Y623622D02*
D03*
M02*
